<svg width="93" height="107" viewBox="0 0 93 107" fill="none" xmlns="http://www.w3.org/2000/svg">
<path fill-rule="evenodd" clip-rule="evenodd" d="M18.3544 82.4117L16.27 65.5294C10.7513 61.6053 6.49969 58.3754 1.38997 54.6558C-1.02252 36.8727 3.4336 27.2253 9.97412 18.0685C18.1092 7.72606 31.1902 0 46.8468 0C62.5041 0.163076 75.6259 8.05286 83.3526 18.3953C90.5875 28.2064 94.4715 40.5516 91.65 55.1463L77.5472 65.5294L75.4615 82.4117H53.1019C51.7119 83.5164 49.832 84.5375 46.8468 84.6197C43.9037 84.5375 42.0639 83.5164 40.5515 82.4117H18.3544Z" fill="#CC2229"/>
<path fill-rule="evenodd" clip-rule="evenodd" d="M46.8475 58.9874C45.662 43.2486 45.3352 23.8309 44.3542 8.25645C42.6781 7.84747 40.307 7.97042 38.3449 8.29722C36.3828 8.9107 34.952 9.44199 33.276 10.3823C36.3421 25.3439 39.8987 44.3933 42.924 59.2326C38.7953 44.8023 33.276 26.7339 29.1887 12.3444C27.2266 12.7533 25.3053 13.8567 23.9159 15.0015C22.4444 16.1462 21.5856 17.005 20.2364 19.0486C26.1634 31.7213 33.276 47.8684 39.2451 60.4589C32.3357 49.0125 23.9554 33.9286 17.0059 22.5644C15.6573 23.75 14.6348 24.6087 13.2856 26.8976C12.1408 28.7374 11.5687 30.904 11.3235 32.989C18.9272 42.2688 28.0019 53.3878 35.6464 62.6255C27.6757 54.9402 17.864 45.0476 9.97486 37.3623C9.19831 38.9154 8.70778 40.2239 8.46252 42.7988C8.17649 45.2922 8.66701 48.2761 9.1983 50.0751L24.6096 61.5215L26.2449 74.235L43.21 74.3573C44.4363 75.7881 44.8447 76.5239 46.8482 76.6462C48.7689 76.5239 49.8735 75.3383 50.364 74.3573H67.2871L69.0033 61.6031L84.2929 50.2382C84.8644 48.3583 85.2319 45.4553 85.0287 42.9619C84.7835 40.264 84.2929 38.9148 83.6387 37.484C75.7088 45.1285 65.8563 55.0218 57.9671 62.7064C65.6518 53.5496 74.6456 42.3892 82.3302 33.0285C81.9219 30.9441 81.4313 28.8176 80.2044 26.9785C78.7736 24.689 77.9556 23.8309 76.6478 22.6046C69.6581 33.928 61.1549 49.1355 54.2462 60.4991C60.379 47.8678 67.3279 31.7206 73.3377 19.2123C72.0299 17.2088 71.089 16.187 69.7811 15.1244C68.228 13.9389 66.3067 12.8355 64.4261 12.3858C60.1337 26.7339 54.8609 44.9661 50.6908 59.2734C53.5926 44.4341 57.2314 25.5483 60.1337 10.6282C58.6628 9.56495 57.232 9.03365 55.3094 8.46159C53.1027 8.05261 50.9361 7.97107 49.2186 8.2571C48.0745 23.9538 48.0324 43.3308 46.8475 58.9874Z" fill="#F6D330"/>
<path fill-rule="evenodd" clip-rule="evenodd" d="M0 100.398H7.93055C7.80824 102.156 8.66698 102.565 9.07597 102.851C9.52507 103.014 12.8371 103.177 14.4717 102.891C15.126 102.769 15.7388 102.524 15.7388 100.52C15.7388 99.6622 15.5343 98.7219 14.5533 98.5168C11.0782 98.2314 7.68529 98.599 4.21086 98.2715C0.735784 97.4956 0.205139 96.5955 0 93.8568C0.245261 90.055 1.59452 88.9516 5.47794 88.8286C9.52415 88.7063 13.5731 88.7063 17.6193 88.8286C21.748 88.8286 23.0151 90.4238 23.0151 93.8982H15.7388C15.7388 92.1808 15.412 91.5272 14.5533 91.445C12.784 91.3227 11.0083 91.3227 9.23904 91.445C8.58479 91.445 7.72671 91.7724 7.72671 93.3255C7.72671 94.7965 8.09427 95.1647 9.07597 95.2883C12.0599 95.4099 15.0852 95.4514 18.0283 95.6546C22.9336 95.9412 23.0973 98.1078 23.2604 100.397C23.3419 103.668 22.1564 104.811 21.2983 105.344C20.4809 105.712 16.5153 106.162 15.7388 106.162H7.89043C6.13218 106.162 3.92483 105.957 2.00351 105.385C0.204493 104.895 0 102.483 0 100.398ZM74.5232 106.243H81.4721V88.9115H74.5232V106.243ZM86.132 106.243H93V88.9115H86.132V106.243ZM70.4761 97.1682C70.3496 96.626 70.1852 96.0935 69.9843 95.5743C68.7987 93.653 64.7115 93.653 60.7465 93.5708C57.7626 93.5708 53.3071 93.653 51.9986 94.9194C51.4667 95.4921 51.1807 96.3094 51.0176 97.1682C50.8131 98.1906 50.8532 99.2526 50.8532 99.7438C50.8532 100.643 50.9354 104.117 52.6115 105.017C54.1646 106.039 58.8653 106.162 60.6637 106.162C62.585 106.162 67.8999 105.957 68.6771 105.057C70.0658 104.567 70.3932 102.851 70.6793 101.502H63.8527C63.8527 102.851 62.7895 103.669 60.6637 103.544C58.7424 103.668 57.639 103.218 57.639 100.807L70.6786 100.847C70.6793 99.6622 70.7213 98.3945 70.4761 97.1682ZM63.8527 98.3537H57.639C57.639 97.8632 57.7212 97.4536 57.8435 97.1682C58.292 96.0648 59.4374 96.0241 60.663 95.9419C62.5436 95.9419 63.3616 96.3916 63.689 97.1682C63.8527 97.4956 63.8935 97.904 63.8527 98.3537ZM27.3483 106.243H34.134V98.885C34.2978 97.8638 34.543 97.0459 37.0364 97.0459C39.4068 97.0058 40.0611 97.6587 40.0611 98.885V106.243H46.8469V98.885C46.8469 96.4732 46.8067 95.1653 45.253 94.4716C43.863 93.5714 41.8595 93.6944 39.9795 93.6944C38.0175 93.6944 35.8101 93.9397 34.134 94.7576V88.9121H27.3483V106.243Z" fill="#CC2229"/>
</svg>
