<svg width="258" height="42" viewBox="0 0 258 42" fill="none" xmlns="http://www.w3.org/2000/svg">
<g clip-path="url(#clip0_7_256)">
<path d="M52.9835 26.74L55.7502 26.25L56.0269 9.09999L53.2602 8.60999L53.3293 5.73999H72.9733L72.835 11.76H68.8232L68.6848 9.37999H61.2146L60.9379 26.18L63.7047 26.67L63.6355 29.54H52.9143L52.9835 26.74Z" fill="white"/>
<path d="M72.0741 26.74L73.9416 26.53L82.1727 5.81H87.4987L94.969 26.53L96.8365 26.74L96.7674 29.61H87.9137L87.9829 26.74L89.7813 26.46L88.6746 23.17H80.3052L79.1293 26.46L80.9277 26.74L80.8585 29.61H72.0049L72.0741 26.74ZM81.6194 19.6H87.5679L84.8011 11.2H84.6628L81.6194 19.6Z" fill="white"/>
<path d="M112.676 5.73999C115.65 5.73999 117.933 6.43999 119.662 7.83999C121.322 9.23999 122.152 11.06 122.152 13.37C122.083 15.68 121.253 17.5 119.455 18.9C117.725 20.3 115.374 21 112.399 21H108.042L107.973 26.25L110.739 26.74L110.67 29.61H99.949L100.018 26.74L102.785 26.25L103.062 9.09999L100.295 8.60999L100.364 5.73999H103.131H112.676ZM108.111 17.22H112.469C113.921 17.22 115.028 16.87 115.789 16.1C116.55 15.4 116.965 14.42 116.965 13.3C116.965 12.18 116.619 11.2 115.927 10.43C115.166 9.65999 114.129 9.30999 112.676 9.30999H108.318L108.111 17.22Z" fill="white"/>
<path d="M120.492 26.74L122.36 26.53L130.591 5.81H135.917L143.387 26.53L145.255 26.74L145.186 29.61H136.332L136.401 26.74L138.199 26.46L137.093 23.17H128.723L127.547 26.46L129.346 26.74L129.277 29.61H120.423L120.492 26.74ZM130.038 19.6H135.986L133.219 11.2H133.081L130.038 19.6Z" fill="white"/>
<path d="M148.713 8.60999L148.782 5.73999H159.503L159.434 8.60999L156.668 9.09999L156.529 15.96H167.112L167.25 9.09999L164.484 8.60999L164.553 5.73999H167.32H172.507H175.274L175.205 8.60999L172.438 9.09999L172.092 26.18L174.859 26.67L174.79 29.54H164.069L164.138 26.67L166.905 26.18L167.043 19.67H156.46L156.322 26.18L159.088 26.67L159.019 29.54H148.298L148.367 26.67L151.134 26.18L151.48 9.09999L148.713 8.60999Z" fill="white"/>
<path d="M201.558 5.73999L201.42 12.11H197.408L197.27 9.44999H192.497L192.22 26.25L194.987 26.74L194.918 29.61H184.197L184.266 26.74L187.033 26.25L187.309 9.44999H182.537L182.26 12.11H178.317L178.456 5.73999H201.558Z" fill="white"/>
<path d="M215.6 5.73999L215.53 8.60999L212.764 9.09999L212.556 20.16H212.694L223.346 10.43V9.09999L220.58 8.60999L220.649 5.73999H223.416H228.603H231.37L231.301 8.60999L228.534 9.09999L228.257 26.25L231.024 26.74L230.955 29.61H220.234L220.303 26.74L223.07 26.25L223.277 15.47H223.139L212.487 25.2V26.25L215.254 26.74L215.185 29.61H204.463L204.533 26.74L207.299 26.25L207.645 9.16999L204.878 8.67999L204.948 5.80999H207.714H212.902H215.6V5.73999Z" fill="white"/>
<path d="M257.378 5.73999L257.308 8.60999L254.542 9.09999L254.196 26.18L256.963 26.67L256.893 29.54H249.008L249.146 20.58H245.757L243.267 25.76C242.575 27.02 241.815 28 240.846 28.63C239.878 29.33 238.771 29.68 237.526 29.68C236.904 29.68 236.35 29.61 235.866 29.47C235.382 29.33 234.898 29.12 234.483 28.91L235.244 25.34C235.451 25.41 235.659 25.48 235.866 25.48C236.004 25.48 236.212 25.55 236.489 25.55C236.973 25.55 237.457 25.41 237.872 25.13C238.287 24.85 238.771 24.36 239.255 23.66L241.33 19.74C239.532 19.11 238.218 18.27 237.388 17.22C236.489 16.17 236.074 14.77 236.143 13.16C236.212 10.85 237.042 9.02999 238.771 7.76999C240.5 6.50999 242.852 5.87999 245.826 5.87999H254.818H257.378V5.73999ZM241.192 13.23C241.192 14.42 241.538 15.4 242.23 16.1C242.921 16.8 244.028 17.15 245.481 17.15H249.285L249.423 9.44999H245.619C244.166 9.44999 243.129 9.79999 242.368 10.43C241.607 11.06 241.192 12.04 241.192 13.23ZM246.241 29.54L246.311 26.67L249.077 26.18L249.008 29.54H246.241Z" fill="white"/>
<path d="M34.5153 34.44L32.2327 30.24L37.282 27.44V4.76H4.70349V9.17H0V0H41.9855V30.31L34.5153 34.44Z" fill="white"/>
<path d="M20.8198 42L0 30.31V14.07H4.70349V27.44L20.8198 36.54L27.9442 32.62L30.2268 36.75L20.8198 42Z" fill="white"/>
<path d="M20.8197 25.48V30.94L10.1677 24.92V9.09998H18.1913V13.93H14.8712V22.12L20.8197 25.48Z" fill="white"/>
<path d="M31.8177 16.8H27.1142V13.86H22.9641V9.09998H31.8177V16.8Z" fill="white"/>
</g>
<defs>
<clipPath id="clip0_7_256">
<rect width="258" height="42" fill="white"/>
</clipPath>
</defs>
</svg>
