<svg width="93" height="94" viewBox="0 0 93 94" fill="none" xmlns="http://www.w3.org/2000/svg">
<path fill-rule="evenodd" clip-rule="evenodd" d="M4.69753 0.621826C2.10304 0.621826 0 3.39777 0 6.821V87.4218C0 90.8459 2.10304 93.6218 4.69753 93.6218H88.3021C90.8965 93.6218 93 90.8459 93 87.4218V6.821C93 3.39777 90.8965 0.621826 88.3021 0.621826H4.69753Z" fill="#D52B1E"/>
<path fill-rule="evenodd" clip-rule="evenodd" d="M46.4046 42.1604C47.67 32.8031 51.8416 15.9265 59.7972 15.9265C69.0853 15.9265 79.9983 47.1255 79.9956 72.9554H71.4305C71.4305 45.8638 64.7949 21.4536 60.02 21.4526C55.0394 21.4522 50.6746 38.0568 50.6746 69.6923H42.121C42.121 38.0568 37.7825 21.4526 32.7752 21.4526C28.0092 21.4526 21.3783 45.8684 21.3783 72.9554H12.8132C12.8213 47.1034 23.7066 15.9234 33.0112 15.9265C40.9561 15.9292 45.1289 32.8011 46.4046 42.1604Z" fill="#FDC82F"/>
<path fill-rule="evenodd" clip-rule="evenodd" d="M82.864 70.7519H83.2554C83.584 70.7519 83.8854 70.736 83.8854 70.3535C83.8854 70.0321 83.6117 69.9836 83.3575 69.9836H82.864V70.7519ZM82.4899 69.6798H83.4199C83.9908 69.6798 84.2592 69.9063 84.2592 70.3692C84.2592 70.8071 83.985 70.9892 83.6293 71.0272L84.3144 72.094H83.9133L83.2602 71.0559H82.864V72.094H82.4899V69.6798ZM83.293 72.652C84.2416 72.652 84.9795 71.8898 84.9795 70.8797C84.9795 69.8885 84.2416 69.1265 83.293 69.1265C82.3306 69.1265 81.5963 69.8885 81.5963 70.8797C81.5963 71.8898 82.3306 72.652 83.293 72.652ZM83.293 68.8225C84.414 68.8225 85.3533 69.7116 85.3533 70.8797C85.3533 72.0653 84.414 72.955 83.2928 72.955C82.1663 72.955 81.22 72.0653 81.22 70.8797C81.22 69.7116 82.1663 68.8225 83.2928 68.8225H83.293Z" fill="#FDC82F"/>
</svg>
