<svg width="93" height="95" viewBox="0 0 93 95" fill="none" xmlns="http://www.w3.org/2000/svg">
<g clip-path="url(#clip0_7_319)">
<path d="M46.501 0.812851C45.3835 0.812851 43.2033 0.930197 43.1144 0.935618C43.537 1.04882 10.5011 18.072 10.5011 17.8934C10.4909 17.9512 10.4754 17.999 10.4452 18.0366C3.89625 26.0831 0.0090332 36.305 0.0090332 47.5091C0.0090332 56.7431 2.6876 65.3438 7.29327 72.5906C7.32439 72.5737 19.0203 83.9521 18.8771 85.066C26.6024 90.8057 36.154 94.2027 46.4997 94.2027C50.1129 94.2027 53.6233 93.7742 57.0019 92.9926C56.9406 92.6272 56.8846 92.2608 56.834 91.8938L56.2238 87.5889C56.0396 86.4113 55.0796 78.4075 55.0796 78.4075L55.0761 78.3839L56.0984 77.9898C56.0984 77.9898 57.4416 78.0456 57.4086 78.0497C57.4086 78.0497 58.7709 86.0994 59.0078 87.4958L59.2643 88.9741C59.363 89.5691 59.4465 90.1597 59.5687 90.7713C59.6548 91.2799 59.7307 91.7675 59.8056 92.2528C60.9076 91.9202 61.9933 91.5513 63.0585 91.1425C62.8966 90.2276 62.7207 89.2847 62.7058 89.145L62.1568 85.8702C61.4317 82.4917 60.9698 79.9856 60.6304 78.3186C60.5825 78.0791 60.492 77.6534 60.492 77.6534L61.5412 77.2318L62.9254 77.3402C62.9254 77.3402 64.6913 85.1017 65.1322 87.4483L65.6358 90.0608C66.5828 89.6304 67.5206 89.176 68.4315 88.6839L68.14 87.3434C68.1089 87.2136 68.0756 87.0577 68.0359 86.8842C67.4425 84.2624 65.8682 76.9592 65.8682 76.9592L67.1311 76.4611L68.3648 76.6355H68.3705C68.3705 76.6355 69.9554 83.3683 70.9834 87.2002C72.7492 86.0994 74.441 84.8906 76.0361 83.5692C76.0361 83.5692 90.7585 61.4341 90.8639 61.5071C92.244 57.0884 92.9914 52.386 92.9914 47.5087C92.9907 21.72 72.1762 0.812851 46.501 0.812851Z" fill="#A3080C"/>
<path d="M58.1487 24.0596C58.1487 24.0596 52.342 13.0615 49.9733 11.4107C47.6074 9.75987 43.7078 8.72927 41.0045 9.07238C37.5817 9.50637 29.7533 13.6674 29.233 13.8048C29.2368 13.845 26.3163 17.4633 25.5537 21.1897C25.3842 22.0178 22.3789 35.2202 22.3789 35.2202L28.0935 51.8018L48.4586 61.5607L55.926 53.3962C55.926 53.3962 56.8788 45.3181 58.8894 39.2594C60.9 33.2008 60.265 29.9058 60.265 29.9058L58.1487 24.0596Z" fill="#FFF1E2"/>
<path d="M33.2064 34.7444C32.8832 34.9294 32.6442 34.9728 32.495 35.0525C32.3454 35.1344 32.1095 35.3105 32.168 35.6252C32.2296 35.9415 32.3159 36.0442 32.3461 36.2881C32.3746 36.5295 32.2591 36.967 31.9797 37.4638C31.7048 37.9619 31.2647 38.3216 31.0149 38.4673C30.7691 38.615 30.6183 38.6548 30.4787 38.7288C30.4469 38.7435 30.4183 38.8197 30.3898 38.9727L30.3869 38.9756C30.4064 38.9597 30.4283 38.947 30.4517 38.938C30.5053 38.915 30.6158 38.9122 30.7152 38.8937C30.8114 38.8758 30.8822 38.8532 30.9174 38.8484C30.9549 38.8439 31.1777 38.8123 31.2152 38.8041C31.2527 38.7967 31.9279 38.6548 32.3464 38.4613C32.7626 38.2668 33.4934 37.9128 33.9122 37.4045C34.2198 37.0324 34.5903 36.3548 34.6265 35.6823C34.6351 35.5432 34.6335 35.4568 34.6335 35.4568C34.6335 35.4568 34.6351 35.4568 34.6351 35.4552C34.6399 35.4552 34.644 35.4539 34.6484 35.4539C34.5832 35.4523 34.5203 35.429 34.4697 35.3876C34.3576 35.2996 34.2671 35.2346 33.9236 34.8659C33.7027 34.6281 33.7179 34.4536 33.8376 34.2543C33.8347 34.2588 33.8296 34.2633 33.8265 34.2677C33.7242 34.3634 33.5255 34.5598 33.2064 34.7444ZM50.2798 32.5464C50.2798 32.5464 50.0913 32.5627 50.0265 32.5914C49.9751 32.6128 49.8779 32.6491 49.8116 32.7384C49.7452 32.8293 49.7303 32.9881 49.869 33.1587C50.01 33.3286 50.2049 33.6462 50.1887 33.9182C50.1782 34.0378 50.1954 34.4288 50.0697 34.7103C49.9284 35.0295 49.7652 35.3443 49.6531 35.4862C49.5884 35.5697 49.2893 35.902 49.2455 36.1373C49.2337 36.1867 49.2455 36.2416 49.2687 36.2932C49.2687 36.2932 49.2722 36.2904 49.2722 36.2945C49.2706 36.2961 49.2722 36.299 49.2706 36.3018C49.2762 36.2824 49.2857 36.2643 49.2985 36.2486C49.3728 36.1644 49.5252 36.0793 49.79 35.9973C50.1411 35.8857 50.3906 35.7527 50.5846 35.6041C50.5611 35.6316 50.5551 35.6634 50.5402 35.695C50.5602 35.6462 50.583 35.5981 50.6265 35.5598C50.7307 35.4696 52.1085 34.5407 52.1437 33.041C52.1571 32.4779 51.4297 32.4036 51.1269 32.3934C50.9018 32.3838 50.4776 32.5911 50.2986 32.5474C50.2954 32.5461 50.2903 32.5413 50.2836 32.5401C50.2868 32.5401 50.2868 32.5413 50.2868 32.5413C50.2865 32.5448 50.2811 32.5448 50.2798 32.5464ZM35.6072 42.8997C35.6072 42.8997 41.0837 44.6006 43.7029 41.5445C46.3221 38.4887 50.8462 43.1656 51.137 44.5473C51.4285 45.929 44.3379 49.7555 42.1949 49.8353C40.0519 49.915 31.5594 48.7724 31.5594 47.8955C31.5594 47.0186 35.6072 42.8997 35.6072 42.8997ZM58.0822 21.0436C57.2114 11.7669 52.9616 7.11734 49.9071 4.86066C46.6971 2.7363 39.0608 0.86514 35.4618 1.03414C31.2155 1.23344 21.4092 5.88552 21.0298 6.22927C20.6682 6.56059 14.0917 17.6058 14.905 19.579C15.7184 21.5522 16.8709 30.8714 17.2464 31.6198C17.3607 31.844 19.2367 37.9154 20.4743 37.6918C21.7216 37.4664 22.8846 31.9291 22.829 31.5002C22.6703 30.278 20.4616 24.77 20.633 23.9932C20.8067 23.2187 26.7057 13.9422 27.128 13.6164C27.4258 13.3887 37.5448 12.1247 37.6035 12.2229C37.6023 12.22 37.6023 12.2168 37.5981 12.2139L37.5969 12.2123C38.3042 11.5931 39.9446 9.96076 41.4104 10.0194C42.8749 10.08 47.0622 10.6055 49.4277 12.2583C51.7967 13.9091 52.5282 15.5251 52.7289 15.9773C52.7276 15.9773 52.7244 15.9795 52.7228 15.9795C52.8022 15.9913 56.0973 23.5149 57.0631 23.5417C57.7076 23.5592 58.1882 22.1587 58.0822 21.0436ZM53.9829 27.2116C53.6315 27.2528 52.6704 27.3408 52.5644 27.3542C52.3755 27.3787 52.3806 27.4859 52.3923 27.5662C52.4022 27.6491 52.432 27.9667 52.4431 28.1035C52.4549 28.2394 52.5962 28.3191 52.7412 28.3073C52.887 28.2971 53.8061 28.2135 53.9429 28.1922C54.0769 28.1702 54.2096 28.0563 54.2077 27.9476C54.2048 27.8382 54.2064 27.5493 54.2048 27.4326C54.2016 27.315 54.1153 27.1967 53.9829 27.2116ZM15.746 71.5727C15.9286 71.6126 16.1232 71.6572 16.3112 71.7012C15.8911 71.6033 15.4343 71.5032 15.1724 71.4381C15.0428 71.4053 14.839 71.3865 14.6031 71.3913C14.2094 71.3999 13.7234 71.4777 13.331 71.6757C12.8348 71.9232 9.68219 73.529 8.36084 74.1993C9.87026 76.373 11.5598 78.4148 13.4113 80.3029C13.5269 79.8243 15.5933 77.6463 15.8841 76.3699C16.2823 74.6205 15.2914 72.3116 15.746 71.5727ZM68.3657 76.6371L65.8741 76.9598C65.8741 76.9598 67.6663 85.2707 68.146 87.3437L68.4349 88.6842C69.3016 88.2155 70.1493 87.7206 70.9817 87.2005C69.9521 83.3686 68.3672 76.6371 68.3672 76.6371H68.3657Z" fill="white"/>
<path d="M82.8016 43.385C81.5434 44.3397 80.8469 45.6293 80.8507 46.9198C80.8564 48.8327 82.3968 50.6749 85.9659 50.6631C86.7628 50.656 87.5578 50.5834 88.3429 50.4459C88.5447 50.4131 88.7458 50.376 88.9461 50.3346L89.361 48.554C88.6696 48.7862 87.7959 48.9781 87.0952 48.9813C85.1947 48.9874 83.9204 47.8554 83.9172 46.3707C83.914 45.5799 84.2379 44.8847 84.8233 44.3764C85.4506 43.8318 86.3748 43.5024 87.5304 43.5024C88.4457 43.5024 88.981 43.7565 89.3461 44.1194C89.4194 44.1905 89.4871 44.2651 89.5464 44.3433H89.8442L90.4268 42.2419C89.8261 42.0429 88.9366 41.8755 87.9978 41.8649C85.8122 41.8359 84.0363 42.4482 82.8016 43.385ZM79.8252 43.6771C80.0817 43.6771 80.2948 43.7709 80.4376 43.8936C80.5602 43.9979 80.6332 44.122 80.6332 44.2291H80.9262L81.4939 41.9472H73.7807L73.6683 42.3936L73.6417 42.5021C73.6417 42.5021 74.4859 42.5974 74.2271 43.445L72.3019 50.4711L75.5764 50.4775H76.151L76.2968 49.8742C76.2968 49.8742 75.5764 49.6997 75.765 49.0317C75.7736 48.9899 76.045 47.9906 76.2069 47.3908C76.2793 47.1318 76.3307 46.9456 76.3307 46.9456L78.0937 46.9443C78.382 46.9443 78.6029 46.9976 78.7737 47.0639C79.1268 47.1997 79.2623 47.4057 79.2623 47.4057L79.7735 45.3177H76.8022L77.1235 44.1251L77.2438 43.6803L79.8252 43.6771ZM70.4535 49.217C70.225 48.9714 68.2433 45.871 68.2433 45.871L71.7479 43.0537L71.8641 42.96C71.9976 42.8471 72.1429 42.749 72.2975 42.6676C72.6702 42.4753 72.9102 42.5027 72.9102 42.5027L73.0508 41.9412L68.5461 41.9479L68.4337 42.3927L68.4071 42.5027C68.7134 42.5241 69.1408 42.7989 68.7915 43.1264C68.7455 43.1656 65.171 45.9093 65.171 45.9093L65.199 45.8123L65.9422 43.1079C66.0993 42.5678 66.6771 42.5027 66.6771 42.5027L66.8184 41.9463L62.5175 41.9475L62.407 42.3927L62.3785 42.5027C62.5842 42.556 63.1715 42.6704 62.968 43.4456C61.5327 48.6554 61.6968 48.1398 61.5997 48.4236C61.2781 49.6586 60.7965 49.8286 60.5069 49.8601C60.4437 49.8662 60.3891 49.8662 60.3495 49.8684L60.2901 50.1015L60.199 50.4708H64.697L64.8475 49.8592C64.8475 49.8592 64.1338 49.7173 64.2697 49.2001C64.4047 48.6993 64.5409 48.1989 64.6783 47.6988C64.8326 47.1341 64.9691 46.6392 64.9691 46.6392C65.7491 47.8952 65.9288 48.0502 66.8702 49.348C67.7366 50.5486 68.6626 50.4925 70.8983 50.4768C71.0803 50.4756 71.2692 50.474 71.4723 50.474L71.6212 49.8738C71.0549 49.8773 70.6799 49.4619 70.4535 49.217ZM91.6631 42.0945C91.6105 42.041 91.5476 41.9988 91.4783 41.9705C91.409 41.9422 91.3347 41.9283 91.2599 41.9297C91.1043 41.9297 90.9716 41.9845 90.8595 42.0945C90.8061 42.1468 90.7639 42.2095 90.7355 42.2788C90.707 42.348 90.693 42.4224 90.6941 42.4973C90.6941 42.6561 90.75 42.7906 90.8595 42.9026C90.9687 43.0129 91.1043 43.0703 91.2599 43.0703C91.4189 43.0703 91.5513 43.0126 91.6631 42.9026C91.7742 42.7903 91.8294 42.6558 91.8294 42.4973C91.8311 42.4222 91.8172 42.3476 91.7886 42.2783C91.7599 42.2089 91.7172 42.1463 91.6631 42.0945ZM91.6081 42.8468C91.5633 42.8938 91.5093 42.9309 91.4494 42.956C91.3896 42.9811 91.3253 42.9935 91.2605 42.9925C91.1253 42.9925 91.0103 42.9437 90.9164 42.8468C90.8702 42.8013 90.8337 42.7469 90.8091 42.6868C90.7846 42.6267 90.7724 42.5622 90.7735 42.4973C90.7735 42.3627 90.8221 42.246 90.9164 42.1507C90.9607 42.1039 91.0141 42.0669 91.0733 42.0419C91.1325 42.0169 91.1963 42.0044 91.2605 42.0053C91.3252 42.0045 91.3895 42.017 91.4492 42.042C91.509 42.067 91.5631 42.104 91.6081 42.1507C91.7024 42.246 91.7491 42.3627 91.7491 42.4973C91.7491 42.6344 91.7021 42.7514 91.6081 42.8468Z" fill="white"/>
<path d="M91.518 42.3624C91.518 42.284 91.4843 42.231 91.4218 42.2036C91.3664 42.1878 91.3089 42.1808 91.2513 42.1829H91.0332V42.8088H91.1408V42.5614H91.2269C91.2869 42.5614 91.3266 42.5687 91.3526 42.5821C91.3894 42.6063 91.41 42.6538 91.4088 42.7262V42.7744L91.4132 42.7957V42.8031C91.4132 42.8031 91.4132 42.806 91.4167 42.8091H91.518L91.5161 42.8002C91.5101 42.7958 91.5101 42.7855 91.5075 42.7683V42.6759C91.5075 42.644 91.4961 42.6092 91.4729 42.5773C91.4526 42.5451 91.4132 42.5241 91.3669 42.5167C91.3986 42.5136 91.4292 42.5032 91.4564 42.4864C91.4764 42.4728 91.4926 42.4543 91.5034 42.4326C91.5142 42.4108 91.5192 42.3867 91.518 42.3624ZM91.3447 42.4721C91.3119 42.4819 91.2778 42.4859 91.2437 42.4839H91.1424V42.2584H91.2351C91.2964 42.2572 91.3424 42.2655 91.3704 42.2814C91.397 42.2961 91.412 42.328 91.412 42.3739C91.4124 42.3953 91.4062 42.4163 91.3941 42.4339C91.382 42.4515 91.3647 42.4649 91.3447 42.4721ZM85.3459 59.6678C79.4195 57.8607 67.2495 58.2861 67.2495 58.2861L77.1971 81.8297C77.1971 81.8297 78.1181 81.3657 78.2337 81.6189C83.6302 76.5514 87.8206 70.2146 90.3335 63.0776C90.1354 62.9245 91.2723 61.4749 85.3459 59.6678Z" fill="white"/>
<path d="M65.1358 87.4486C64.692 85.1023 62.9243 77.3406 62.9243 77.3406C62.9243 77.3406 65.2711 76.7213 65.8209 75.3721C66.3708 74.0236 65.126 71.9458 65.0669 71.1273C64.8126 68.6828 63.8567 58.671 62.289 56.5983C61.3762 55.3914 57.1789 53.01 56.8522 53.0244C55.3441 53.0907 52.3281 59.6876 49.8079 60.2855C48.1282 60.6841 46.9414 59.0428 47.2135 59.1666C47.2084 59.163 47.203 59.1602 47.1998 59.1576C47.1998 59.1576 47.203 58.9688 46.9221 58.0821C46.6408 57.1921 46.0522 56.2584 45.9433 56.0473C45.8375 55.8356 45.5182 55.3748 45.507 55.3219C45.4982 55.2699 45.382 54.973 45.2997 54.4322C45.1432 53.3888 45.215 52.6899 45.221 52.6264C45.2242 52.5626 45.2531 52.3735 45.2616 52.3353C45.2683 52.2951 45.2527 52.2272 45.2048 52.2154C45.1546 52.2068 45.0207 52.1739 44.8807 52.3187C44.5886 52.6146 44.5752 52.6707 44.5698 52.7208C44.5597 52.7677 44.5898 52.857 44.581 52.9603C44.5492 53.2884 44.4921 53.5393 44.3457 53.7788C44.2 54.0212 44.1051 54.1044 43.8987 54.0846C43.6888 54.0655 43.5142 53.8984 43.4888 53.4657C43.4615 53.0333 43.3768 52.885 43.2904 52.783C43.2044 52.6765 43.0082 52.6277 42.9412 52.6318C42.8751 52.6318 42.8199 52.6911 42.3659 52.8031C41.9157 52.9179 41.2001 52.9564 41.0947 52.9609C40.9871 52.9676 40.5944 53.0075 40.5915 53.0081C40.6737 53.3168 38.9413 52.842 38.6498 53.077C38.0545 53.5553 37.7764 56.6611 37.4856 58.2718L37.485 58.2769L27.7234 59.2689L24.3105 67.2408C24.3105 67.2408 25.3424 83.0252 25.3424 83.2643C25.3424 83.5035 46.9309 78.5609 46.9309 78.5609L55.0756 78.3839C55.0756 78.3839 55.0778 78.39 55.0794 78.4053C55.1371 78.8769 56.0397 86.4104 56.2236 87.5902L56.8344 91.8918C56.8845 92.2573 56.9404 92.6268 57.0017 92.991C57.9468 92.7716 58.8824 92.5286 59.805 92.2512C59.7301 91.7662 59.6526 91.2767 59.5682 90.7713C59.4469 90.1581 59.3631 89.5688 59.265 88.9725L59.0066 87.4945C58.771 86.0994 57.4058 78.0517 57.4058 78.0517L58.8367 77.1441L60.493 77.6524C60.5371 77.8568 60.581 78.0778 60.6314 78.3176C60.9711 79.9872 61.4343 82.4911 62.1576 85.8664L62.7065 89.1438C62.7214 89.2831 62.8982 90.226 63.0611 91.1422C63.9296 90.8066 64.7883 90.4457 65.6359 90.0599L65.1358 87.4486Z" fill="white"/>
<path d="M48.9547 27.6469C47.1556 27.9125 44.5364 29.3873 44.6554 30.4635C44.7288 31.1306 48.481 31.2327 50.1716 31.3538C51.8622 31.475 52.1413 29.8427 52.0505 28.9556C51.9597 28.0685 50.8482 27.3676 48.9547 27.6469ZM61.2323 56.6184C60.3395 56.525 60.7542 57.9794 60.7437 58.1264V58.1292C61.1751 59.7699 61.5477 61.4256 61.8606 63.0932C61.8644 63.2456 61.8755 63.3792 61.8942 63.4876C62.0222 64.1608 62.2869 66.3377 62.7962 71.2542C62.914 72.8919 63.0168 74.5998 63.0848 76.0364C63.1311 76.0332 66.1383 76.2082 66.1383 76.2082C66.1383 76.2082 66.0192 71.9831 65.0868 66.6818C64.1537 61.3811 62.7552 56.7778 61.2323 56.6184ZM53.1239 43.3053C53.2594 42.5576 53.1042 42.188 52.8607 41.7508C52.6207 41.3149 52.1571 40.907 51.5577 40.5116C50.9787 40.1245 49.6691 38.9638 49.5417 38.8541C49.4179 38.747 48.8065 38.1663 48.6649 38.0509C48.5176 37.937 48.2321 37.6985 47.6054 37.3793C46.0869 36.6102 44.8659 37.1858 44.8186 37.2122C44.7723 37.2384 44.5468 37.4214 44.331 37.6274C44.1182 37.8299 44.2779 38.2215 44.3595 38.3643C44.3595 38.3643 52.4184 44.2977 52.4346 44.436L52.4406 44.4405C52.4406 44.4405 53.0118 43.9163 53.1239 43.3053ZM49.7897 35.9976C49.5249 36.0796 49.3728 36.1644 49.2982 36.2489C49.2836 36.2658 49.2779 36.2843 49.2719 36.3022C49.2652 36.3162 49.2652 36.3309 49.2652 36.3449V36.3774C49.2684 36.3914 49.2738 36.4032 49.277 36.416C49.2839 36.4307 49.2919 36.4463 49.3005 36.461C49.3068 36.4705 49.3122 36.481 49.3201 36.4912C49.3319 36.5097 49.3487 36.5273 49.3649 36.5458C49.3716 36.5547 49.3798 36.562 49.3884 36.5703C49.416 36.5984 49.445 36.625 49.4754 36.65C49.504 36.6746 49.5332 36.6972 49.5621 36.7218C49.5684 36.7247 49.5706 36.7279 49.577 36.7323C49.6122 36.7581 49.6478 36.7817 49.683 36.806C49.6843 36.8076 49.6862 36.8076 49.6875 36.8088C49.7271 36.8347 49.7656 36.8592 49.8021 36.8835C49.8418 36.9071 49.8976 36.9195 49.9659 36.9211C50.043 36.9221 50.1201 36.9149 50.1957 36.8997C50.4783 36.8436 50.8396 36.7004 51.146 36.5531C51.146 36.5547 51.1428 36.5531 51.1396 36.5547C51.1218 36.5608 50.5618 35.6319 50.5834 35.6045C50.39 35.753 50.1427 35.886 49.7897 35.9976ZM38.9687 41.5483C38.991 41.5572 39.0106 41.5703 39.0335 41.5792C39.0306 41.5764 39.0287 41.5748 39.0272 41.5719C38.9125 41.4523 38.9037 41.4255 38.8636 41.2629C38.8202 41.0936 38.71 40.886 38.6636 40.7687C38.6138 40.6504 38.3922 40.2492 38.3068 39.9893C38.2217 39.7291 38.1833 39.5703 38.1661 39.3095C38.1001 39.1127 38.05 38.7211 38.0801 38.3672C38.1058 38.0541 38.175 37.6934 38.3728 36.6797C38.5068 36.0139 38.2969 35.247 38.2896 34.5369C38.2833 33.9893 38.2296 32.6437 38.2442 31.2894V31.285C38.1509 31.3168 26.1492 28.7308 26.2337 28.718C26.2353 28.718 26.2385 28.7164 26.241 28.7164C26.3359 27.7183 26.2785 26.3755 26.2248 25.3574C26.5356 22.299 27.0036 18.7589 28.0795 16.3989C28.911 14.5841 28.7999 15.182 29.2107 14.3268C29.2336 14.2809 29.2637 14.227 29.2685 14.1635C29.2729 14.1208 29.238 13.8807 29.231 13.8045V13.8016C29.2066 13.8089 26.2816 12.9862 22.6424 21.3756C21.1191 24.8902 23.1462 33.6791 23.1462 33.6791L26.3143 34.7355L28.378 33.6096L33.2592 32.6032L35.2533 33.5799C35.2533 33.5799 34.639 35.4552 34.6342 35.4552C34.6342 35.4565 34.6326 35.4565 34.6326 35.4565C34.6326 35.4565 34.6342 35.5445 34.624 35.6819C34.5897 36.3557 34.2189 37.0333 33.9097 37.4058C33.4929 37.9128 32.7623 38.2668 32.3464 38.4622C31.9274 38.6545 31.2527 38.7977 31.213 38.8044C31.1772 38.813 30.9527 38.8436 30.9162 38.8493C30.88 38.8522 30.8108 38.8752 30.7146 38.8943C30.6146 38.9115 30.5051 38.9144 30.4505 38.9373C30.4265 38.946 30.4045 38.9593 30.3857 38.9766C30.3548 39.0008 30.3343 39.0361 30.3285 39.0751C30.3225 39.1041 30.3219 39.1339 30.327 39.1631C30.347 39.2626 30.4546 39.402 30.4673 39.4262C30.5124 39.5126 30.7711 39.7594 31.1949 39.6641C31.6306 39.5664 32.0612 39.4468 32.4849 39.3056C32.8601 39.1829 33.3576 38.9667 33.4335 38.9C33.5106 38.8356 33.717 38.6775 33.75 38.6593C33.75 38.6577 33.7513 38.6577 33.7513 38.6577C33.7941 38.6185 33.8348 38.5815 33.8751 38.5467C33.8922 38.5321 33.9094 38.5136 33.9269 38.5002L33.9383 38.4903C34.004 39.2801 33.0608 41.6516 33.0608 41.6516C33.0608 41.6516 30.8632 42.437 31.0026 42.3331C31.0026 42.3331 31 42.3331 31 42.3343C30.8216 42.4223 30.5584 42.5177 30.2924 42.3085C30.2924 42.3085 30.0336 42.0049 29.7168 41.6022C29.5138 41.346 29.3174 41.0847 29.1278 40.8184C29.0193 40.6672 28.9191 40.5101 28.8278 40.3477C28.691 40.1137 28.6364 39.9635 28.6123 39.8697C28.6094 39.8624 28.6059 39.8541 28.6059 39.8484C28.5469 39.6924 28.4976 39.4399 28.4976 39.4399C28.1011 39.3905 27.6839 39.2996 27.2988 39.1583C27.3017 39.1596 27.3017 39.1634 27.3049 39.1663C27.3369 39.195 24.5831 39.7983 24.5831 39.7983L27.4325 51.4574C27.4325 51.4574 32.7503 59.8544 36.0838 58.2335C36.5807 57.9918 37.4458 56.29 37.0893 55.709C36.7229 55.1136 31.0835 45.7176 31.0835 45.7176C31.0835 45.7176 38.8929 41.5145 38.9687 41.5483ZM49.7783 73.2385C50.8196 73.9334 51.1822 74.0957 52.3206 74.574C52.6832 74.7456 53.6388 74.5504 54.0477 73.9356C54.0407 73.9388 54.0331 73.9474 54.0277 73.9522C54.0245 73.9535 54.0245 73.9535 54.0214 73.9535C53.9947 73.9697 48.3509 69.522 47.6153 69.2587C47.3534 69.1655 45.912 69.6968 46.0974 69.9643C46.2635 70.2051 46.9606 70.9343 46.9768 70.9624C47.9607 71.7309 49.1985 72.7564 49.7783 73.2385ZM37.7769 65.0351L28.3386 59.6075C28.3386 59.6075 28.6138 62.2966 28.6123 62.3384L28.6151 62.3419C29.3037 62.9605 30.3822 63.7019 30.5527 63.8183C30.6155 63.8601 31.0543 64.1509 31.148 64.2561C31.2638 64.3824 32.4283 65.2147 32.5172 65.2765C32.6023 65.3349 33.8599 66.0316 34.6218 66.4391C34.6491 66.4238 34.0916 66.8827 34.1002 66.868C33.8322 66.8859 33.6379 67.0093 33.3424 67.1043C32.0194 67.8508 32.8046 69.4037 32.9293 70.4857C33.1824 71.3974 33.5021 72.9803 34.679 73.1279C35.5749 73.236 37.6258 72.6729 38.71 72.4496C38.8637 72.177 40.4355 72.0788 40.4161 72.1008C40.6936 72.0172 41.0657 71.8859 41.1784 71.9072C41.246 71.919 40.9327 72.2532 40.7511 72.5944C40.5685 72.9388 39.4402 76.2845 38.3897 78.0667C38.0373 78.7966 38.2042 78.4952 37.9896 79.0258V79.0274L40.1183 79.5169L43.5576 70.7475L37.7769 65.0351ZM27.0703 71.8521C27.4366 72.5348 28.4922 73.9669 28.544 74.0482C28.5954 74.1279 28.8227 74.3737 29.0907 74.6748C29.3593 74.9745 29.5895 75.2369 29.6542 75.3132C29.719 75.3871 30.2222 75.9117 30.352 76.0319C30.4816 76.1515 30.6317 76.3957 30.7406 76.4971C31.113 76.8332 32.4842 78.0303 32.6166 78.1288C32.749 78.2302 33.403 78.6706 33.5208 78.6869C34.6986 78.8371 35.2768 78.1888 35.3961 77.9968C35.5168 77.8093 35.5396 77.7283 35.4654 77.4471C35.4638 77.4672 30.9184 74.037 27.9024 67.4401C27.7855 67.1847 26.7394 65.9124 25.7791 66.6828C24.9904 67.3154 25.5606 68.8314 25.5606 68.8314V68.84C25.86 69.4611 26.7569 71.2698 27.0703 71.8521ZM18.1459 72.5023C18.4501 71.3594 15.9277 71.6142 15.7458 71.5727C14.9594 72.8511 14.1247 77.1929 13.6996 79.2264C13.626 79.4554 13.5269 79.8233 13.4104 80.2991C13.9882 80.8906 14.5815 81.4667 15.1896 82.0268C15.6286 80.3109 18.0653 72.8061 18.1459 72.5023Z" fill="#F5D4B7"/>
<path d="M91.4131 42.7954C91.4131 42.7984 91.4151 42.8017 91.4151 42.8031C91.4151 42.8031 91.4151 42.8061 91.4168 42.8094C91.4151 42.8064 91.4151 42.8031 91.4151 42.8031C91.4139 42.8007 91.4132 42.7981 91.4131 42.7954Z" fill="#A3080C"/>
<path d="M85.6814 59.1608C84.2746 58.848 80.9439 58.1764 76.4535 57.7622C71.9659 57.3518 68.2924 56.9995 67.7873 56.9449C67.3253 56.8984 67.158 56.4733 66.738 56.2613C65.217 55.4953 62.3416 54.7839 60.5399 54.1468C60.0944 53.9921 59.8014 53.5955 59.1861 52.8419C58.8121 52.3828 58.5588 52.1752 58.2391 51.884C58.0042 51.6722 57.7638 51.4667 57.5181 51.2677C57.4089 51.179 57.3327 50.9249 57.427 50.4312C57.5213 49.9357 57.8159 48.0033 57.7914 45.7533C57.7851 45.1494 58.0499 44.7626 58.3315 44.6213C58.4829 44.5445 59.4687 44.1041 59.4023 43.1309C59.3328 42.1459 59.0296 40.7719 59.8189 38.8379C60.5821 36.9641 61.5355 33.6198 61.6507 31.4135C61.7733 29.0697 61.1869 27.5579 60.2665 26.7394C59.9074 26.4231 59.4836 25.9451 59.8297 24.9247C60.1989 23.8268 60.8694 20.8284 60.2106 18.845C60.0627 18.4046 59.8957 18.4017 59.7947 18.3485C59.6941 18.2968 59.2157 17.9288 59.0356 17.1195C58.794 16.0526 58.0175 12.2605 55.0894 8.4056C53.5379 6.35906 51.8816 5.1419 51.2199 4.65147C50.7663 4.35524 49.9703 3.79816 49.0182 3.28955C47.6559 2.56602 46.5746 2.01405 44.3995 1.3071C43.9733 1.1735 43.5443 1.04911 43.1128 0.934016H43.1058C43.1058 0.934016 41.2527 0.435931 39.2487 0.200919C38.9065 0.169032 38.4382 0.125665 37.9068 0.0893127C35.8438 -0.0318603 35.0907 0.0953713 34.018 0.203789C33.9033 0.21495 33.7865 0.232488 33.6713 0.248113C33.4573 0.276812 33.236 0.309975 33.0046 0.346327C29.8171 0.894475 26.5743 2.39606 24.9971 3.15148C24.1066 3.57622 23.3189 4.01819 22.5944 4.43272C22.5744 4.44548 22.5487 4.46015 22.5354 4.46812C22.2835 4.61828 22.0288 4.7634 21.7712 4.90339C21.3255 5.15594 20.8994 5.39254 20.4867 5.59503C19.2101 6.21875 18.0872 6.53794 17.2662 6.82398C17.1169 6.8801 16.9922 6.92761 16.8953 6.96077C16.3036 7.19228 15.9264 7.43144 15.8572 7.82589C15.7308 8.53379 16.5604 9.19068 16.2642 10.3198C15.5349 13.0966 12.4144 15.7618 11.9141 16.0692C10.4648 16.9575 10.5553 17.5758 10.4994 17.8922C10.4994 18.1862 10.5594 18.5127 10.7261 18.8654C11.209 19.8931 12.1024 20.7739 12.5395 21.7027C12.978 22.6323 13.2278 24.2614 12.8999 26.1657C12.5868 28.0072 12.4887 28.4157 12.3259 28.7534C12.164 29.0924 11.8373 29.7509 12.2878 30.534C12.7402 31.3194 13.6936 32.1207 14.2917 32.5815C14.6098 32.8283 14.7746 33.0522 14.5387 33.497C14.1501 34.225 14.2495 35.9415 14.6174 36.902C15.173 38.3672 15.8254 39.7639 16.4309 40.6615C17.0369 41.5585 18.1183 43.0853 18.7542 43.6376C19.3876 44.1934 19.4745 45.1567 19.4622 45.7546C19.4488 46.3493 19.3657 48.0355 21.0908 49.0907C21.941 49.6156 22.0172 49.4835 22.329 49.7409C22.6408 49.9937 22.7874 50.1251 23.003 50.8078C23.2186 51.488 24.1993 53.8729 25.5495 55.5518C25.9435 56.0393 26.1623 56.385 26.2092 56.465C26.2569 56.5447 26.3302 56.6334 26.1594 57.0352C25.9895 57.4373 25.3079 59.7262 24.7641 62.0922C24.6647 62.5259 24.5187 63.0964 23.9767 63.3642C23.4338 63.627 22.2214 64.3001 21.7801 64.5447C21.3362 64.7902 21.1169 64.9235 20.606 65.5613C20.3787 65.8454 20.2133 66.0115 20.0698 66.1847C19.9873 66.2848 19.9508 66.3492 19.519 66.5753C19.145 66.7701 13.5948 68.7319 7.7094 72.3482C7.57166 72.4313 7.43259 72.5121 7.29224 72.5906C7.63684 73.1342 7.99303 73.6704 8.36055 74.1987C9.6819 73.5278 12.8342 71.9229 13.3297 71.6748C13.7209 71.4768 14.2076 71.3999 14.6009 71.39C14.8378 71.3856 15.041 71.4053 15.1702 71.4372C15.4343 71.5023 15.8889 71.6033 16.3112 71.6996C16.3502 71.7083 16.3893 71.7181 16.4296 71.7264C16.4556 71.7328 16.4814 71.7382 16.5083 71.7462C16.6826 71.7896 16.8439 71.8278 16.9741 71.8629C16.9814 71.8658 16.9874 71.8658 16.9947 71.8693C17.0579 71.8875 17.1154 71.9028 17.1595 71.9162C17.5344 72.0402 17.7338 72.7465 17.5309 73.3894C17.3215 74.1116 17.1172 74.8352 16.9179 75.5603C16.8106 75.9477 16.6934 76.3741 16.5699 76.8262C16.095 78.5559 15.6343 80.2894 15.1879 82.0268C16.3626 83.1023 17.5951 84.1148 18.8758 85.066C19.0193 83.9521 19.1701 82.7921 19.2869 81.9483C19.593 79.7468 21.3439 71.5915 21.8382 69.7373C22.1979 68.3881 22.3849 67.7733 22.8576 67.5606C22.9995 67.4988 23.1608 67.4041 23.2541 67.3581C23.3475 67.3148 23.5519 67.265 23.4888 67.6225C23.4164 68.0466 23.0519 69.7771 22.5157 75.3925C22.1433 79.2883 22.1344 82.7385 22.2684 84.8138C22.3261 85.6974 22.3411 86.9464 23.6872 86.4046C25.26 85.7736 30.6216 83.8428 33.4859 82.9563C38.0979 81.5274 46.7422 79.6189 55.0738 78.3839L57.4035 78.0513C57.4035 78.0513 58.7677 86.1004 59.0026 87.4955L59.2611 88.9722L59.0048 87.4955C58.768 86.1004 57.4057 78.0513 57.4057 78.0513C57.7318 78.0061 58.0603 77.9643 58.3842 77.9228C59.1303 77.8281 59.8309 77.7398 60.4897 77.6534L62.9232 77.3406C64.062 77.1942 65.0389 77.0686 65.8665 76.9598C65.8665 76.9598 67.4396 84.2627 68.0308 86.8861C68.0721 87.0586 68.1073 87.2142 68.1368 87.3447L68.4279 88.6852H68.4324L68.1428 87.3447C67.6628 85.2697 65.8716 76.9608 65.8716 76.9608L68.3632 76.6381C69.0997 76.5437 70.0385 76.4254 70.3182 76.412C70.9037 76.3878 71.1589 76.0549 70.7122 75.92C70.3893 75.8253 69.6442 75.7506 69.267 75.7411L68.7048 75.7337C68.1282 75.7239 67.9635 75.6094 67.8368 74.7561C67.4777 72.2519 66.0894 66.0463 65.0919 62.7743C64.1267 59.6177 63.8883 58.709 63.6562 58.0138C63.4527 57.4153 63.8467 57.3786 64.0356 57.3869C64.7388 57.4207 65.7129 57.7877 65.9922 58.3917C66.6101 59.738 70.8392 70.862 72.5368 75.0093C73.6076 77.6218 74.8556 80.7672 76.0341 83.5688C76.7894 82.9454 77.5174 82.2886 78.2311 81.6183C76.0373 76.7746 71.1541 65.8008 68.5791 60.2469C68.4746 60.0135 68.3808 59.7753 68.2981 59.5332C68.2785 59.4787 68.268 59.4213 68.267 59.3633C68.2702 59.009 68.7365 58.9596 68.9673 58.9822C69.876 59.0737 78.1336 59.6206 80.3883 59.8368C81.8761 59.9781 83.36 60.2061 84.3514 60.384C84.5813 60.4267 84.7832 60.4653 84.9543 60.4988C85.1133 60.5288 85.2712 60.5637 85.428 60.6034C86.1633 60.796 87.4608 61.3116 88.6625 61.9586C89.159 62.2246 89.7248 62.612 90.3308 63.0792C90.516 62.5589 90.6926 62.0357 90.8607 61.5096C90.4118 61.1953 89.946 60.9061 89.4654 60.6433C88.0939 59.9086 86.9364 59.4414 85.6814 59.1608ZM18.4453 31.6574C18.2208 31.7544 18.018 31.7802 17.8627 31.4728C17.4862 30.725 17.2001 29.3934 17.0909 28.5283C16.9785 27.6638 16.8065 25.0835 16.8607 23.6737C16.9207 22.263 16.6464 21.4747 16.1445 20.8C15.6413 20.1262 15.3178 19.6584 15.1943 19.4314C15.039 19.1482 15.1429 18.9547 15.4397 18.7385C15.5838 18.6371 15.8781 18.698 16.1058 18.6505C16.556 18.5596 18.0592 18.0121 19.1793 17.1297C20.2968 16.2474 22.0779 14.5408 23.2865 13.8839C24.4914 13.227 25.0263 12.9276 26.4366 12.7576C26.6867 12.7283 27.062 12.8625 26.6385 13.1862C26.2153 13.5099 24.858 13.993 23.2754 16.3915C22.3036 17.859 22.1452 18.7066 21.8375 19.3651C21.5283 20.0232 21.2327 20.2094 20.7435 20.7423C20.5054 20.9964 20.0203 21.5305 19.8454 22.3051C19.6755 23.0803 18.9729 25.8111 19.3857 29.9415C19.4342 30.4224 19.6314 31.0624 19.1825 31.2952C18.9053 31.4396 18.6675 31.5621 18.4453 31.6574ZM20.3832 37.2228C20.1441 37.0522 19.1669 35.7234 18.691 34.2467C18.6386 34.0908 18.5815 33.6941 18.839 33.5809C19.0501 33.49 19.3304 33.3267 19.4761 33.2572C19.6238 33.1826 19.9917 33.0857 20.0425 33.6185C20.094 34.1526 20.1403 34.7821 20.7464 36.3577C20.8562 36.6392 20.8788 36.7272 20.9073 36.8401C20.9858 37.1673 20.6045 37.3809 20.3832 37.2228ZM22.3738 32.2049C22.309 32.2161 21.6385 32.2974 21.2769 32.3653C21.0524 32.4068 20.8213 32.491 20.7956 32.2738C20.7648 32.0517 20.7236 31.8313 20.6721 31.6131C20.6527 31.5216 20.6965 31.4348 20.8051 31.409C21.0715 31.3471 22.1007 31.1734 22.2001 31.1683C22.2995 31.167 22.4001 31.2008 22.4433 31.4077C22.4823 31.6153 22.5319 31.8363 22.5436 31.9262C22.5557 32.0187 22.5814 32.173 22.3738 32.2049ZM22.7395 28.8319C22.6776 28.5171 22.5909 27.9782 22.6189 27.6428C22.6284 27.5092 22.6687 27.175 22.8284 26.9948C23.0541 26.7378 23.3541 26.5041 23.5488 26.3459C23.9028 26.0548 23.8291 25.3013 23.8548 24.8689C23.9329 23.6128 23.8218 19.6463 26.3845 15.8514C26.4835 15.7072 26.5839 15.5743 26.6829 15.4486C26.7131 15.411 26.7432 15.3762 26.7734 15.3392C26.8467 15.2522 26.9204 15.1683 26.9963 15.0908C27.1135 14.9668 27.2373 14.8492 27.3671 14.7385C27.3804 14.728 27.3922 14.7162 27.4045 14.7053C27.5084 14.6211 27.6125 14.5449 27.716 14.4725C27.7535 14.448 27.7909 14.4238 27.8284 14.4018C27.8998 14.3546 27.9719 14.3121 28.0439 14.271C28.0849 14.2487 28.1255 14.2257 28.1675 14.2044C28.2462 14.1639 28.3271 14.1259 28.4071 14.0899C28.4376 14.0771 28.4675 14.0625 28.4976 14.0484C28.6014 14.0047 28.7081 13.9658 28.8138 13.9295C28.8592 13.9139 28.903 13.9008 28.9478 13.8868C29.0189 13.8644 29.0897 13.8431 29.1605 13.8233C29.1847 13.8172 29.2069 13.8086 29.2313 13.8026V13.8055C29.7529 13.6658 30.2879 13.5873 30.8282 13.4952C32.3537 13.235 34.1319 13.4783 35.0466 13.7707C35.7736 14.0019 36.1419 14.1792 36.3851 13.9486C36.6295 13.719 37.2661 12.9939 37.5363 12.7369C37.5734 12.7005 37.6026 12.6607 37.6226 12.6215C37.6309 12.6081 37.6353 12.5944 37.6413 12.581C37.6512 12.5551 37.6598 12.5277 37.6639 12.5006C37.6655 12.4859 37.6686 12.4703 37.6686 12.4541C37.6686 12.4282 37.6655 12.4024 37.6613 12.375C37.6585 12.3616 37.6585 12.3463 37.6518 12.3329C37.6414 12.2942 37.6249 12.2575 37.6029 12.2241C37.5436 12.125 37.4493 12.0366 37.3324 11.9662C37.0359 11.7911 34.0586 9.5966 30.045 9.49839C26.1232 9.39986 22.9402 10.7937 22.096 11.0854C21.9252 11.1432 21.8375 11.1734 21.7372 11.1747C21.6379 11.1776 21.2956 11.0602 21.4223 10.8118C21.5613 10.5465 21.9093 10.1381 22.2709 9.80706C22.6503 9.46363 24.506 7.70918 26.3388 6.89668C26.6778 6.74745 26.7604 6.68527 26.9775 6.60044C27.255 6.4949 27.4192 5.86671 26.8061 5.86512C26.1778 5.86065 25.9276 5.93144 25.5959 5.98342C25.2635 6.0389 25.0809 5.88967 25.2908 5.60364C25.4981 5.31856 25.9079 5.00224 26.6477 4.59886C28.2538 3.71972 31.1918 2.79306 32.5807 2.4879C34.392 2.08962 34.6132 2.06379 35.8152 1.98981C36.9394 1.92476 37.8385 2.00448 38.2639 2.0217C41.8651 2.15914 46.0123 3.3562 49.2233 5.47959C52.2759 7.73564 56.6698 11.4942 57.5403 20.7726C57.6448 21.8861 57.5714 22.5171 57.5286 22.7958C57.4908 23.0745 57.1758 23.587 56.8993 23.005C55.9885 21.0876 54.5801 18.5784 52.9912 16.1999C52.8969 16.0586 52.801 15.9907 52.7232 15.9805C52.6934 15.9745 52.6625 15.9782 52.6349 15.991C52.6283 15.9955 52.6232 16.0028 52.6156 16.0079C52.5985 16.0206 52.584 16.0364 52.5727 16.0545C52.5664 16.0685 52.5591 16.0832 52.5546 16.0982C52.5474 16.1192 52.5425 16.1411 52.54 16.1632C52.5368 16.183 52.5333 16.2018 52.5333 16.2225C52.5333 16.2697 52.5365 16.3217 52.5502 16.3785C52.5899 16.5468 53.0959 19.0628 53.1143 19.4132C53.1362 19.7627 52.9661 20.6205 54.2633 22.2034C54.7935 22.8529 55.2637 23.4078 55.5053 24.366C55.7434 25.3207 55.8247 25.7292 55.8259 25.8306C55.8297 25.9304 55.9437 26.2148 55.485 26.2177C55.0284 26.219 53.2867 26.0921 52.5413 26.109C51.7949 26.1268 46.646 26.6342 44.7303 27.043C42.8144 27.4524 41.7835 27.9371 40.7996 28.9753C40.5628 29.225 40.2317 29.4578 40.1564 29.4792C40.0853 29.4993 39.8354 29.4938 39.3472 29.4607C38.8608 29.4288 38.0176 29.5487 37.5744 29.7496C37.1286 29.9498 36.8108 30.1361 36.274 29.9163C35.5066 29.6045 34.1903 28.1807 30.7727 28.3484C28.7154 28.4495 27.6614 28.506 26.2337 28.718C26.1505 28.7314 26.0645 28.7438 25.9791 28.7572C25.9248 28.7662 25.8686 28.7748 25.813 28.7843C25.7829 28.7888 25.7514 28.7933 25.7197 28.799C25.1384 28.8944 24.4818 29.0171 23.6713 29.1759C23.5589 29.1973 23.4484 29.2202 23.3322 29.2422C23.0167 29.3057 22.7982 29.1635 22.7395 28.8319ZM54.21 27.9467C54.21 28.056 54.0772 28.1692 53.9417 28.1922C53.8077 28.2136 52.8886 28.2981 52.7416 28.3089C52.5972 28.3191 52.4559 28.2394 52.4438 28.1029C52.4321 27.9683 52.4022 27.6491 52.394 27.5656C52.3791 27.4872 52.3756 27.3778 52.5629 27.3535C52.6721 27.3402 53.6306 27.2537 53.9849 27.2116C54.1169 27.196 54.2036 27.3159 54.2068 27.4323C54.2068 27.549 54.2068 27.8382 54.21 27.9467ZM49.9091 28.9833C49.6246 28.7824 49.1246 28.4661 48.8217 28.3551C48.6128 28.2799 48.6855 28.0174 48.9836 27.9757C50.0196 27.8239 50.684 27.8239 51.1993 28.1472C51.5762 28.3816 51.8263 28.8366 51.7108 29.2378C51.5752 29.6982 51.3958 29.5984 51.1707 29.5946C50.9456 29.5901 50.19 29.1852 49.9091 28.9833ZM50.5082 31.0133C50.3259 31.1367 49.73 31.0267 49.5135 30.9415C49.069 30.7665 48.7538 30.6453 48.1359 30.2515C47.7324 29.9945 47.0314 29.8672 46.4174 30.0535C46.013 30.1762 45.6879 30.2789 45.3316 30.417C44.9748 30.5544 44.9018 30.2279 44.9951 30.0882C45.0872 29.9486 45.652 29.2843 46.4012 29.0021C46.5587 28.9415 46.8794 28.9084 47.0368 28.9052C47.5197 28.8912 48.1182 29.1278 48.5715 29.46C49.0284 29.7949 49.7548 30.3408 50.2316 30.5455C50.4548 30.6421 50.9402 30.7132 50.5082 31.0133ZM35.6136 47.1653C33.8065 47.8008 33.2998 47.1624 33.1389 46.973C32.9785 46.7839 33.1763 46.5993 33.3678 46.5097C33.7976 46.3088 34.3729 45.8713 34.6634 45.5862C34.9555 45.3018 35.5228 44.3117 35.9324 43.9638C36.1267 43.7977 37.1762 43.4393 37.9658 43.8174C38.9046 44.2667 40.3663 44.3133 41.2638 44.1959C42.1607 44.0748 42.5026 43.4163 42.6972 43.0276C42.8912 42.6354 43.3671 42.4919 43.6173 42.3885C44.3059 42.1057 45.2174 41.1567 45.3107 41.0601C45.404 40.9603 45.6882 40.82 46.14 41.0859C46.9622 41.5713 47.3803 42.2135 48.1436 43.0847C48.9074 43.9565 49.811 44.0926 50.0757 44.1095C50.3405 44.1264 50.5056 44.4348 50.5177 44.5196C50.5323 44.6044 50.3116 44.8994 50.1469 45.0234C49.9815 45.1475 49.8903 45.3672 48.4283 45.4019C41.092 45.584 37.7909 46.4 35.6136 47.1653ZM45.564 48.0521C45.1288 48.2782 43.8341 48.7683 43.1896 48.893C42.5429 49.0177 40.491 49.4354 40.1447 49.4635C39.7135 49.4969 39.1094 49.3672 38.5849 49.0068C38.4795 48.9338 38.3363 48.6506 38.7189 48.5939C39.4288 48.488 40.5749 47.9526 44.744 47.7393C45.192 47.7163 45.4024 47.7068 45.5098 47.7045C45.6171 47.7023 46.0025 47.826 45.564 48.0521ZM35.9051 57.3489C34.4491 57.59 30.573 56.4478 28.0528 50.201C27.4033 48.5942 28.1157 46.9954 28.7408 46.6723C29.1116 46.4832 29.3123 46.4064 29.4386 46.3745C29.5758 46.3397 30.2355 46.2533 30.3104 46.9989C30.3698 47.6019 31.5353 52.5527 33.1023 54.1898C33.4887 54.5955 33.7941 54.5706 33.8938 54.1516C33.9795 53.7673 34.1484 53.2619 34.1976 53.069C34.2323 52.93 34.6104 52.5103 34.8247 53.0454C35.2857 54.1812 35.8419 55.6678 36.2073 56.2632C36.5648 56.8438 36.4498 57.2584 35.9051 57.3489ZM36.1924 41.0155C36.3292 41.2062 36.414 41.5528 36.4035 41.7058C36.3895 41.8825 35.7882 42.203 35.1631 41.4982C34.5377 40.7919 34.6599 39.8159 34.9186 39.4013C35.3314 38.74 36.1422 39.0694 36.0638 39.3053C35.793 40.1223 36.0533 40.8235 36.1924 41.0155ZM31.5461 31.8679C31.0784 31.8526 30.5752 31.7948 29.7215 32.1124C28.7659 32.467 28.1516 32.9297 27.7071 33.2036C27.2506 33.4897 26.7667 33.6124 26.6048 33.6242C26.4439 33.6383 25.8572 33.5608 26.2613 33.1341C26.3686 33.0174 26.6261 32.9294 27.0169 32.6434C27.2963 32.4367 27.5033 32.2894 27.8211 32.0206C28.3875 31.5359 29.5418 30.8354 30.045 30.7732C30.4143 30.7288 31.067 30.799 31.4553 31.1182C31.8594 31.4514 32.0147 31.8829 31.5461 31.8679ZM23.5053 32.7001C23.5545 32.3927 23.8891 31.5822 24.5942 31.3471C24.6891 31.3184 25.0406 31.2037 25.3343 31.1278C25.6351 31.0522 25.9381 30.9857 26.2429 30.9285C26.7531 30.8392 26.8607 31.2292 26.5394 31.4833C26.3289 31.6517 25.9927 31.8711 25.6956 32.1128C25.2438 32.4839 24.8098 32.8966 24.4742 33.1769C24.0656 33.5187 23.4037 33.3312 23.5053 32.7001ZM25.9006 41.5269C25.8996 41.5261 25.8986 41.5251 25.8978 41.5241L25.8905 41.5129C25.7638 41.333 25.6455 41.1474 25.5359 40.9565C25.5127 40.9144 25.4895 40.871 25.4654 40.8293C25.3555 40.6245 25.2527 40.4176 25.1717 40.1998C25.0136 39.7779 25.2784 39.7157 25.4549 39.8076C25.6311 39.9023 26.1467 40.2043 26.6975 40.321C27.034 40.3905 27.2337 40.2285 27.3128 39.9849C27.3245 39.9485 27.3398 39.9035 27.3563 39.8548C27.3658 39.8334 27.3731 39.8104 27.3804 39.7868C27.3849 39.7728 27.389 39.7581 27.3944 39.7425C27.4014 39.7161 27.4077 39.6902 27.4134 39.6628C27.4182 39.6488 27.4198 39.6341 27.4223 39.6201C27.429 39.592 27.4319 39.5646 27.435 39.5359C27.4363 39.5219 27.4363 39.5085 27.4379 39.4928C27.4379 39.4648 27.435 39.4374 27.4319 39.4087C27.4303 39.3962 27.4287 39.3828 27.4255 39.371C27.4181 39.3407 27.4075 39.3113 27.3938 39.2833C27.388 39.2744 27.3855 39.2648 27.3811 39.2575C27.3603 39.223 27.3345 39.1919 27.3045 39.165C27.2578 39.1241 27.2043 39.0919 27.1464 39.0697C26.6667 38.8761 25.3066 38.4447 24.2853 36.5369C24.2305 36.4447 24.2097 36.3362 24.2264 36.2302C24.2431 36.1242 24.2963 36.0274 24.3767 35.9568C24.4764 35.8771 24.832 35.6494 25.0022 35.5439C25.1743 35.438 25.4073 35.4501 25.6502 35.6185C25.8835 35.7862 26.3905 36.1571 26.7972 36.121C27.175 36.0841 27.2128 35.9284 27.2801 35.8299C27.5465 35.4396 28.2681 34.0219 30.1593 33.9989C30.9397 33.9887 31.6705 34.0611 31.9321 34.0448C32.1909 34.0279 33.1138 33.9444 33.6573 33.5729C34.1926 33.2033 34.4208 33.4693 34.1116 33.8736C34.0656 33.9342 34.024 33.9874 33.9849 34.0407C33.9697 34.0598 33.958 34.0767 33.944 34.0946C33.9051 34.1465 33.8685 34.2 33.8341 34.255C33.7164 34.4552 33.7017 34.6287 33.9214 34.8666C34.2665 35.2352 34.3564 35.3012 34.4685 35.3883C34.5192 35.4294 34.5823 35.4523 34.6475 35.4533C34.6761 35.4533 34.7078 35.4473 34.7396 35.4386C34.7529 35.4342 34.7659 35.4342 34.7815 35.4284C34.8372 35.4036 34.8889 35.3707 34.9352 35.3309C35.1323 35.1558 35.2647 35.0515 35.4368 34.8283C35.5647 34.6635 35.673 34.8296 35.6412 35.0876C35.6161 35.2885 35.706 36.578 34.3069 38.1634C34.2611 38.2167 34.1548 38.3047 34.0224 38.4176C33.9898 38.4442 33.9577 38.4716 33.9262 38.4995C33.9091 38.5142 33.8916 38.5314 33.8745 38.5461C33.8306 38.5844 33.7871 38.6252 33.7421 38.6673C33.7062 38.7004 33.6697 38.7403 33.6332 38.7766C33.5957 38.8143 33.5598 38.849 33.5217 38.8895C33.4989 38.9141 33.476 38.9428 33.4525 38.9702C33.4055 39.0235 33.3576 39.0773 33.3106 39.1363C33.296 39.1561 33.282 39.1768 33.2687 39.1956C33.2153 39.2645 33.1649 39.3357 33.1176 39.409C33.0573 39.5052 33.0029 39.6051 32.9547 39.7081C32.5655 40.5423 32.616 40.8174 32.5737 41.1217C32.5356 41.423 32.3026 41.5429 32.0404 41.6647C31.8823 41.7377 31.4632 41.981 30.9987 42.334L31.0013 42.3318C30.8622 42.4367 30.7206 42.5534 30.5803 42.6739C30.5533 42.6985 30.5273 42.7211 30.5022 42.7457C30.3619 42.8697 30.2234 43.0014 30.0955 43.1385C30.0143 43.224 29.9275 43.304 29.8358 43.378C29.8056 43.4016 29.7777 43.4201 29.7479 43.4415C29.6871 43.4858 29.6243 43.5272 29.5596 43.5655C29.5267 43.5847 29.4929 43.6023 29.4583 43.6181C29.3948 43.65 29.3316 43.6759 29.2666 43.6985C29.2323 43.7103 29.1989 43.7246 29.1647 43.7332C29.1475 43.7377 29.1316 43.745 29.1161 43.7501C29.0758 43.7591 29.0351 43.7604 28.9948 43.7664C28.9446 43.7753 28.8948 43.7849 28.8437 43.7878C28.7878 43.7906 28.731 43.7878 28.6732 43.7849C28.624 43.7795 28.5738 43.7795 28.5259 43.7737C28.4668 43.7648 28.4084 43.7463 28.3506 43.7301C28.3017 43.7173 28.2529 43.7071 28.203 43.6896C28.1478 43.6682 28.0932 43.6376 28.0376 43.6105C27.9846 43.5847 27.9338 43.5639 27.8824 43.532C27.8776 43.5282 27.8722 43.5269 27.8678 43.5241C27.769 43.461 27.6742 43.3919 27.5839 43.3171C27.307 43.0782 27.0397 42.8282 26.7826 42.5678C26.7751 42.5599 26.768 42.5518 26.7613 42.5432C26.6209 42.4005 26.4853 42.2531 26.3546 42.1012C26.3435 42.0869 26.033 41.7116 25.9006 41.5269ZM42.7163 71.1544C42.6302 71.6033 42.2654 73.1161 40.9263 76.2302C40.8358 76.4401 40.7479 76.6425 40.6622 76.838C40.6415 76.8839 40.6203 76.9273 40.6003 76.9739C40.5672 77.0485 40.5326 77.1247 40.4999 77.1948C40.4968 77.2012 40.4952 77.2066 40.4926 77.213C40.4441 77.3214 40.3948 77.4228 40.3447 77.5239C40.3447 77.5239 40.3418 77.5268 40.3418 77.5303C40.3355 77.5421 40.3285 77.5552 40.3206 77.5682C40.3028 77.6036 40.2844 77.6381 40.2669 77.6716C40.2428 77.7165 40.2199 77.7647 40.1942 77.808C40.1942 77.8128 40.1926 77.8144 40.1913 77.8163C40.1848 77.8258 40.1789 77.8357 40.1736 77.846L40.1161 77.9464C40.1129 77.9525 40.1088 77.9579 40.1056 77.9643V77.9675C40.0885 77.9923 40.0736 78.0175 40.0586 78.0411C40.0542 78.0494 40.0501 78.059 40.0453 78.066C40.0424 78.0692 40.0402 78.0727 40.0358 78.0775C40.0158 78.111 39.9939 78.1429 39.9729 78.1776C39.9682 78.1827 39.964 78.1862 39.9612 78.191C39.937 78.2264 39.9126 78.2612 39.8888 78.2943C39.8875 78.2943 39.8837 78.301 39.8796 78.3026C39.8593 78.3313 39.8374 78.3594 39.8164 78.3858C39.8101 78.3925 39.8062 78.3976 39.8018 78.4008C39.7777 78.4337 39.752 78.4592 39.7294 78.4872C39.7259 78.4872 39.7227 78.4917 39.7202 78.4952C39.7069 78.5086 39.6913 78.522 39.678 78.5367H39.6767C39.6695 78.5455 39.6613 78.5534 39.6523 78.5603C39.6478 78.565 39.6408 78.5686 39.6361 78.5753C39.6104 78.5985 39.5859 78.6218 39.5602 78.6387C39.5573 78.6416 39.5558 78.6432 39.5516 78.6454C39.5291 78.6636 39.5054 78.6801 39.4805 78.6948C39.4747 78.6992 39.4685 78.7032 39.4621 78.7066L39.4503 78.7133C39.4453 78.7178 39.4408 78.72 39.4364 78.72C39.4186 78.7318 39.4002 78.742 39.3818 78.7532C39.3818 78.7532 39.3789 78.7532 39.3757 78.7545C39.3522 78.7675 39.3265 78.7761 39.2992 78.7857C39.2929 78.7889 39.2865 78.7921 39.2792 78.7943C39.2507 78.8026 39.2234 78.8109 39.1932 78.8179C38.9151 78.8779 38.6176 78.9209 38.4436 78.9512C38.4179 78.9538 38.2398 78.9837 38.2252 78.9888C38.1525 78.9994 38.0741 79.0112 37.9899 79.0258V79.0242C35.98 79.3638 30.5127 80.3096 27.9766 80.8246C26.2943 81.162 26.4597 80.3109 26.0375 78.7746C25.86 78.1291 25.2352 72.4162 25.56 68.8301C25.6689 67.6394 25.721 67.2906 25.9337 67.1592C26.1461 67.0275 26.4715 66.8148 26.5693 66.7867C26.6645 66.7615 26.9544 66.6847 27.0896 66.9296C27.222 67.1722 29.6774 72.1754 31.2822 73.9879C32.7061 75.6027 33.7071 76.7742 34.9075 77.5612C34.9869 77.6145 35.0552 77.6473 35.1171 77.6677C35.1231 77.6706 35.1304 77.6744 35.1374 77.676C35.166 77.6846 35.1917 77.6891 35.2161 77.6926C35.2403 77.6958 35.2625 77.6942 35.2837 77.6926C35.2901 77.691 35.2955 77.691 35.3018 77.6891C35.3383 77.6815 35.3716 77.6631 35.3974 77.6362L35.4079 77.6244C35.4312 77.5947 35.4474 77.56 35.4552 77.523C35.4568 77.5166 35.4568 77.5096 35.4568 77.5032C35.4898 77.317 35.4015 77.0348 35.2253 76.8434C34.9606 76.5568 33.8637 75.4232 32.4188 73.3584C30.5498 70.6942 29.2834 66.7615 28.9427 65.502C28.7199 64.6774 28.5948 63.377 28.6154 62.3394H28.6126C28.6141 62.2934 28.6154 62.2536 28.618 62.2096L28.6227 62.1104C28.6272 61.9476 28.6392 61.7851 28.6586 61.6235C28.6634 61.5852 28.6687 61.5508 28.6732 61.5138L28.7008 61.3378C28.7068 61.3046 28.7132 61.2743 28.7208 61.2447C28.737 61.1649 28.7554 61.0913 28.7783 61.0269C29.0691 60.1924 29.312 60.282 29.5691 60.5616C29.8269 60.8438 32.1471 62.9589 35.9724 64.6802C36.7848 65.0457 37.2693 65.2134 37.3801 65.3336C37.4896 65.45 37.6645 65.6974 37.3169 65.7794C36.9734 65.861 35.953 65.8974 34.8847 66.3215C34.8228 66.3467 34.7656 66.3719 34.7132 66.3951C34.3396 66.5632 34.1643 66.7325 34.0849 66.914C34.0695 66.9493 34.0575 66.986 34.0491 67.0236C34.0424 67.0485 34.0364 67.0782 34.0335 67.105C34.0287 67.1461 34.0272 67.1875 34.0288 67.229C34.0288 67.2561 34.0272 67.2842 34.03 67.3122C34.0332 67.3652 34.0389 67.4187 34.0446 67.4752C34.0573 67.5699 34.0703 67.6675 34.0799 67.7743C34.1364 68.3566 34.2367 68.772 34.3104 69.5507C34.3824 70.3323 34.3377 71.0386 34.717 71.3683C35.0952 71.6936 35.6114 71.8868 36.9902 71.618C38.2982 71.3616 38.7338 71.25 38.8887 71.2456C39.0408 71.2405 39.4081 71.1789 39.1837 71.6091C39.1624 71.6505 39.1345 71.7006 39.1014 71.7615C38.7998 72.3007 38.0693 73.516 37.8204 74.3256C37.5445 75.2181 37.4886 75.4649 37.4645 75.6174C37.4423 75.7707 37.5477 76.0663 37.8191 75.7357C38.0899 75.4044 38.6262 74.1706 39.9732 72.5998C40.1378 72.4092 40.3051 72.2209 40.4752 72.0351C40.4764 72.0351 40.478 72.0319 40.4812 72.0284C40.6031 71.897 40.7165 71.7775 40.8247 71.6678C40.8549 71.6365 40.8834 71.6084 40.9123 71.5813L41.1708 71.3301C41.3567 71.1545 41.553 70.9902 41.7584 70.838C41.7737 70.8294 41.787 70.8195 41.801 70.81C41.8591 70.7666 41.9165 70.728 41.9695 70.6961C41.9841 70.6879 41.9997 70.677 42.0143 70.6665C42.0673 70.6333 42.1175 70.6065 42.1638 70.5804C42.1711 70.574 42.1826 70.5686 42.1908 70.5641C42.1972 70.5622 42.2013 70.5578 42.2054 70.5555C42.26 70.5306 42.3054 70.5039 42.3518 70.4825C42.728 70.2975 42.8302 70.5558 42.7163 71.1544ZM44.9462 78.0293C44.7303 78.0794 43.7979 78.2216 43.6538 78.2238C43.5119 78.2274 43.3912 78.0941 43.4515 77.9914C43.5115 77.8913 44.1535 77.0523 44.5062 75.5919C44.5659 75.354 44.7138 75.1881 44.81 75.5303C44.8843 75.78 45.1723 77.0214 45.2386 77.4885C45.2485 77.5702 45.2983 77.9464 44.9462 78.0293ZM45.3374 66.1209C44.7246 66.3518 44.0433 65.6601 43.4919 65.2906C42.2524 64.4395 41.112 63.6193 40.1764 62.4711C38.7433 60.7137 38.8773 59.4886 39.2935 57.2185C39.5827 55.6057 39.0583 54.0897 38.944 53.8761C38.8306 53.6618 38.9586 53.4443 39.2976 53.6037C39.6364 53.7638 39.9605 54.2603 40.3085 54.686C40.6536 55.1117 40.7301 54.8091 40.7587 54.5199C40.8247 53.8521 40.6749 53.3174 40.592 53.0071H40.5901C40.5855 52.9906 40.5817 52.9739 40.5787 52.9571C40.5301 52.7721 40.3587 52.3598 39.998 52.2849C39.5148 52.1828 39.0398 52.1398 38.782 51.9536C38.662 51.8671 38.5255 51.6895 38.6608 51.5597C38.9068 51.3203 39.2643 51.0027 39.604 50.886C40.0659 50.7265 40.5101 50.4839 41.0952 50.487C45.044 50.5122 46.1088 49.5945 47.6185 48.9657C47.9143 48.8407 48.0915 48.7855 48.3452 48.8652C48.6001 48.9421 49.2903 49.2026 49.4643 49.5106C49.6392 49.82 49.67 51.1085 50.0075 52.0381C50.3399 52.9705 50.9059 52.0043 51.0304 51.6053C51.1495 51.2045 51.1961 50.2517 51.2025 50.0106C51.2088 49.7696 51.2787 48.753 51.5962 48.4102C52.2273 47.7332 52.3762 46.9322 52.4524 46.6191C52.52 46.3382 52.5733 45.5528 52.4346 44.437C52.4197 44.2996 52.3997 44.1554 52.3752 44.0078C52.1619 42.6621 51.8924 42.5483 51.5288 42.3037C51.1647 42.0598 50.7828 42.1657 49.8554 41.5273C49.0258 40.9539 48.2725 39.952 47.6439 39.3407C47.0178 38.7304 46.0285 38.1166 44.9846 38.0085C44.9258 38.0033 44.8668 38.0008 44.8078 38.0011H44.7961C44.7497 38.004 44.7059 38.0075 44.6684 38.0152C44.6611 38.0164 44.6567 38.0196 44.6484 38.0215C44.618 38.0269 44.5882 38.0353 44.5595 38.0467C44.5529 38.0521 44.5455 38.0564 44.5376 38.0595C44.5176 38.0713 44.4979 38.0825 44.4818 38.0955C44.4745 38.1029 44.4684 38.1102 44.4605 38.1185C44.4482 38.1301 44.4375 38.1433 44.4287 38.1577C44.4214 38.1679 44.417 38.1807 44.4106 38.1925C44.4062 38.2052 44.3995 38.2154 44.3967 38.2272C44.3911 38.2455 44.3872 38.2643 44.3849 38.2833C44.3849 38.2907 44.3837 38.2967 44.3837 38.3047C44.3821 38.3305 44.3821 38.3573 44.3849 38.3844H44.3837C44.4049 38.6437 44.591 38.96 44.6383 39.0901C44.7043 39.2668 44.8713 39.8069 44.5751 40.1217C44.2767 40.4364 42.5318 42.0043 40.8977 41.9651C40.1593 41.9482 39.543 41.7958 39.0259 41.5741C39.0284 41.5765 39.0305 41.5792 39.0322 41.5821C39.0103 41.5725 38.9919 41.5607 38.969 41.5502C38.849 41.497 38.7314 41.4383 38.6166 41.3742C38.5989 41.364 38.5776 41.3551 38.5576 41.3439C38.4374 41.274 38.3207 41.1984 38.2077 41.1172L38.1112 41.0445C38.0297 40.9826 37.9507 40.9175 37.8744 40.8493C37.8525 40.8292 37.8271 40.8095 37.8052 40.79C37.7163 40.7049 37.6337 40.6217 37.5566 40.5387C37.5375 40.5158 37.5207 40.4944 37.5013 40.4737C37.442 40.4051 37.3883 40.3369 37.3359 40.2706C37.3197 40.2492 37.3042 40.2301 37.2896 40.2084C37.2336 40.1303 37.1805 40.0502 37.1302 39.9683C37.1239 39.9587 37.1207 39.9514 37.1146 39.9425C37.0743 39.8723 37.0397 39.8057 37.0092 39.7451C37.0019 39.7288 36.994 39.7141 36.9864 39.6969C36.9585 39.6378 36.9341 39.5771 36.9131 39.5152C36.6746 38.7948 37.2667 37.0923 37.2458 35.8733C37.2385 35.3392 37.1286 34.3143 37.047 33.6032C36.9658 32.8918 37.3391 31.9342 37.5128 31.7021C37.5605 31.6451 37.6162 31.5953 37.6782 31.5544C37.6953 31.5417 37.7144 31.5315 37.7325 31.5197C37.7956 31.4782 37.868 31.439 37.9499 31.403L37.9861 31.3845C38.0661 31.3513 38.1515 31.3165 38.2446 31.2862V31.2907C38.3969 31.2381 38.5611 31.1893 38.7408 31.1488C39.3227 31.0187 40.0031 31.3079 40.178 31.7904C40.7863 33.4734 41.4603 33.829 41.686 33.939C41.9153 34.0512 42.2753 33.718 42.4166 33.5952C42.5585 33.4763 42.9004 33.0248 42.7486 32.8267C42.5147 32.526 42.3864 32.3414 42.3188 32.1536C42.2042 31.836 42.6175 31.8293 42.7153 31.8736C43.9608 32.4036 44.5573 32.5149 45.7631 32.4744C46.967 32.4367 48.8388 31.6402 49.0706 31.6357C49.2595 31.6313 49.6329 31.748 49.7729 31.9431C49.796 31.9763 49.8275 32.0235 49.857 32.07C49.978 32.2502 50.1399 32.4919 50.2837 32.5423C50.2904 32.5436 50.2942 32.5468 50.2999 32.5484C50.4783 32.5927 50.9031 32.5602 51.1282 32.5697C51.4326 32.5802 51.9609 32.4744 51.946 33.0359C51.9127 34.5353 50.7326 35.4705 50.6253 35.5614C50.5837 35.599 50.5602 35.6472 50.5393 35.696C50.5329 35.7094 50.5218 35.7234 50.5196 35.7381C50.5048 35.7879 50.5037 35.8408 50.5164 35.8911C50.5443 35.9804 50.672 36.3041 50.7266 36.3921C50.7459 36.424 50.7694 36.4543 50.7996 36.483C50.8066 36.4903 50.8193 36.4964 50.8275 36.5043C50.851 36.5222 50.8742 36.5391 50.9009 36.5509C50.9142 36.5582 50.9323 36.5598 50.9475 36.5649C50.974 36.5723 51.0014 36.5757 51.0288 36.5751C51.0466 36.5751 51.0685 36.5691 51.0863 36.5649C51.1307 36.5554 51.1717 36.5464 51.2187 36.5177C52.2187 35.917 52.6257 35.2068 53.061 34.3143C53.495 33.4259 53.7233 30.4919 53.748 30.0107C53.7728 29.526 53.9249 29.2282 54.1617 29.0334C54.3966 28.8376 55.565 28.086 55.7297 28.0477C55.8974 28.0085 56.0888 27.9923 56.2774 28.4298C56.4691 28.8701 56.8863 31.5751 56.9657 31.991C57.0555 32.4329 57.2838 32.3803 57.3984 32.2955C57.6483 32.1121 57.8292 31.8867 58.0521 31.5028C58.2819 31.1185 58.1134 30.5885 57.8902 30.3417C57.6698 30.0936 57.3203 29.6973 57.4692 29.3038C57.8076 28.4097 58.5188 28.4546 58.7093 28.4865C58.8966 28.5184 59.6169 28.8443 59.7474 30.7926C59.9357 33.6788 58.7639 36.6631 58.4842 37.4198C57.8667 39.1022 57.7368 40.2476 57.6416 40.7929C57.5486 41.3359 57.1381 41.2377 57.0396 41.1497C56.94 41.062 56.8114 40.6414 56.7482 40.5793C56.6838 40.5171 56.5215 40.549 56.4155 41.0123C56.3098 41.4747 55.957 42.1169 55.7497 42.4664C55.6113 42.6931 55.6373 43.0183 55.6704 43.2709C55.7323 43.7616 55.9866 45.6392 55.9091 47.7737C55.7681 51.5715 54.5039 53.9638 53.561 55.216C51.3425 58.1627 49.262 59.3942 49.0122 59.569C48.6909 59.7938 48.154 59.7587 47.9743 59.6991C47.7918 59.6474 47.6315 59.4577 47.2902 59.2134C47.2622 59.1914 47.2343 59.1796 47.2108 59.1669C46.9397 59.0409 46.899 59.4245 46.9016 59.5243C46.9048 59.6308 47.0686 60.0253 47.1616 60.4079C47.3388 61.1292 46.9397 62.0007 46.5292 62.6888C45.9434 63.6617 45.2897 64.7312 45.4263 65.9063C45.425 66.0109 45.425 66.0871 45.3374 66.1209ZM64.1379 67.2443C64.4722 69.1748 64.8484 71.5271 65.2732 74.4107C65.2954 74.5632 65.3116 74.6933 65.3233 74.8144C65.3265 74.8294 65.3297 74.8463 65.3297 74.8607C65.3414 74.9742 65.3478 75.0785 65.3478 75.1633C65.3478 75.1722 65.3462 75.1802 65.3462 75.1869C65.3462 75.2251 65.3462 75.2666 65.343 75.2998C65.3387 75.3294 65.3332 75.3589 65.3265 75.3881C65.3265 75.3996 65.3233 75.4114 65.3233 75.4219C65.3109 75.4755 65.2902 75.5268 65.262 75.574C65.2589 75.5807 65.2535 75.5858 65.2471 75.5944C65.2233 75.6271 65.1948 75.6561 65.1627 75.6805L65.1316 75.7041C65.0881 75.7315 65.0414 75.7533 64.9925 75.7691C64.9795 75.7752 64.9601 75.7771 64.943 75.7838C64.9014 75.7972 64.8566 75.809 64.8071 75.8224C64.7763 75.8291 64.7458 75.8342 64.7147 75.8425L64.5077 75.8836C64.3718 75.9117 64.1734 75.9404 64.0356 75.9515C63.7972 75.9751 63.5191 75.9987 63.2162 76.0255C60.2881 76.2946 54.5576 76.8782 49.9672 77.4589C49.8808 77.4672 49.7922 77.4767 49.6979 77.4917C49.3401 77.5421 49.1331 77.485 49.1046 77.1323C49.083 76.8087 48.5455 73.6078 46.9232 70.8811C46.7743 70.6291 46.6167 70.3823 46.4508 70.1413C46.2657 69.8734 46.5406 69.6697 46.8022 69.7625C47.5375 70.0217 49.5738 70.9579 52.4784 73.0459C53.2201 73.5781 53.4128 73.7436 53.5791 73.8855C53.6013 73.905 53.6356 73.9238 53.6658 73.9388C53.6775 73.9449 53.6909 73.9474 53.7055 73.9535C53.7252 73.9608 53.7515 73.9685 53.7763 73.9742C53.7899 73.9771 53.8029 73.9802 53.816 73.9809C53.8439 73.9844 53.8718 73.9857 53.8972 73.9844H53.9287C53.9614 73.9801 53.9929 73.9693 54.0214 73.9525C54.089 73.9098 54.1201 73.8269 54.0674 73.6837C53.8868 73.1722 52.9153 72.1674 50.43 69.8511C50.0754 69.522 50.0697 69.3827 50.437 69.3441C50.8031 69.3093 51.7997 69.3543 52.3292 69.3323C52.8607 69.3093 54.0461 69.2759 53.8137 67.7175C53.6356 66.5103 53.4963 65.2615 53.474 64.8878C53.4544 64.5154 53.389 63.8186 52.521 63.7204C51.6584 63.6209 50.2126 63.8221 48.9154 64.2788C48.5576 64.4038 48.4312 64.2376 48.696 63.995C48.9595 63.7539 51.2371 62.2654 53.1778 60.0272C55.3116 57.5626 56.2498 55.7491 56.7825 54.0999C56.879 53.8072 57.0019 53.907 57.1209 53.9736C57.2387 54.0438 58.0394 54.6937 58.3232 56.2922C58.601 57.8939 59.1528 60.1168 58.1807 65.9541C57.646 69.1518 56.9933 71.0405 56.8412 71.4914C56.6888 71.9375 56.9504 72.1891 57.2444 71.7889C57.9302 70.8486 58.8372 68.2421 59.6023 65.2453C60.3557 62.2883 60.6287 59.753 60.7443 58.1283V58.1267C60.7561 57.9774 60.7662 57.8371 60.7735 57.7026L60.7786 57.6481C60.785 57.5167 60.7916 57.3901 60.8002 57.2772C60.8002 57.2077 60.8088 57.1528 60.8205 57.1028C60.8237 57.0878 60.8291 57.076 60.8338 57.0629C60.8408 57.0406 60.8472 57.016 60.8551 56.9979C60.8551 56.9947 60.8589 56.9947 60.8589 56.9915C60.8723 56.9666 60.8883 56.9432 60.9065 56.9217C60.9119 56.9156 60.9154 56.9099 60.9202 56.9067C60.9345 56.8936 60.9481 56.8875 60.9612 56.8805C60.9716 56.8757 60.9815 56.8687 60.9913 56.8652C60.9996 56.8639 61.0059 56.8639 61.0145 56.8623C61.031 56.8591 61.0472 56.856 61.0615 56.856C61.0672 56.856 61.0729 56.856 61.0802 56.8591H61.1024C61.1081 56.8591 61.111 56.8639 61.1139 56.8639C61.1732 56.8741 61.2269 56.8977 61.2685 56.9156C61.4205 56.9752 62.0911 57.1697 62.4403 58.7864C62.4552 58.8515 62.4701 58.9223 62.4873 58.9924C62.4905 59.016 62.4952 59.0425 62.5019 59.0661C62.5184 59.1311 62.5333 59.1962 62.5485 59.2673L62.552 59.2791C62.8419 60.5511 63.367 62.7504 64.1379 67.2443Z" fill="black"/>
<path d="M51.7583 69.9984H52.0847V70.8348H52.2818V69.9984H52.6072V69.8304H51.7583V69.9984ZM53.3149 70.5485L53.0631 69.8304H52.7793V70.8348H52.9619V70.0265L53.24 70.8348H53.4003L53.674 70.0265V70.8348H53.8562V69.8304H53.5724L53.3149 70.5485Z" fill="black"/>
</g>
<defs>
<clipPath id="clip0_7_319">
<rect width="93" height="94.1625" fill="white" transform="translate(0 0.0405273)"/>
</clipPath>
</defs>
</svg>
