<svg width="2232" height="363" viewBox="0 0 2232 363" fill="none" xmlns="http://www.w3.org/2000/svg">
<path d="M458.368 231.11L482.304 226.875L484.697 78.65L460.761 74.415L461.36 49.61H631.303L630.106 101.64H595.4L594.203 81.07H529.577L527.183 226.27L551.119 230.505L550.52 255.31H457.77L458.368 231.11Z" fill="#1F1F1F"/>
<path d="M623.524 231.11L639.681 229.295L710.889 50.215H756.965L821.592 229.295L837.748 231.11L837.15 255.915H760.556L761.154 231.11L776.712 228.69L767.138 200.255H694.733L684.56 228.69L700.118 231.11L699.52 255.915H622.926L623.524 231.11ZM706.102 169.4H757.564L733.628 96.8H732.431L706.102 169.4Z" fill="#1F1F1F"/>
<path d="M974.78 49.61C1000.51 49.61 1020.26 55.66 1035.22 67.76C1049.58 79.86 1056.76 95.59 1056.76 115.555C1056.16 135.52 1048.98 151.25 1033.42 163.35C1018.46 175.45 998.117 181.5 972.386 181.5H934.687L934.089 226.875L958.025 231.11L957.426 255.915H864.676L865.274 231.11L889.21 226.875L891.603 78.65L867.667 74.415L868.266 49.61H892.202H974.78ZM935.286 148.83H972.984C985.551 148.83 995.125 145.805 1001.71 139.15C1008.29 133.1 1011.88 124.63 1011.88 114.95C1011.88 105.27 1008.89 96.8 1002.9 90.145C996.322 83.49 987.346 80.465 974.78 80.465H937.081L935.286 148.83Z" fill="#1F1F1F"/>
<path d="M1042.4 231.11L1058.55 229.295L1129.76 50.215H1175.84L1240.47 229.295L1256.62 231.11L1256.02 255.915H1179.43L1180.03 231.11L1195.59 228.69L1186.01 200.255H1113.61L1103.43 228.69L1118.99 231.11L1118.39 255.915H1041.8L1042.4 231.11ZM1124.98 169.4H1176.44L1152.5 96.8H1151.3L1124.98 169.4Z" fill="#1F1F1F"/>
<path d="M1286.54 74.415L1287.14 49.61H1379.89L1379.29 74.415L1355.36 78.65L1354.16 137.94H1445.71L1446.91 78.65L1422.97 74.415L1423.57 49.61H1447.51H1492.39H1516.32L1515.73 74.415L1491.79 78.65L1488.8 226.27L1512.73 230.505L1512.13 255.31H1419.38L1419.98 230.505L1443.92 226.27L1445.12 170.005H1353.56L1352.36 226.27L1376.3 230.505L1375.7 255.31H1282.95L1283.55 230.505L1307.49 226.27L1310.48 78.65L1286.54 74.415Z" fill="#1F1F1F"/>
<path d="M1743.71 49.61L1742.52 104.665H1707.81L1706.61 81.675H1665.32L1662.93 226.875L1686.87 231.11L1686.27 255.915H1593.52L1594.12 231.11L1618.05 226.875L1620.44 81.675H1579.16L1576.76 104.665H1542.65L1543.85 49.61H1743.71Z" fill="#1F1F1F"/>
<path d="M1865.19 49.61L1864.59 74.415L1840.65 78.65L1838.86 174.24H1840.05L1932.21 90.145V78.65L1908.27 74.415L1908.87 49.61H1932.8H1977.68H2001.62L2001.02 74.415L1977.09 78.65L1974.69 226.875L1998.63 231.11L1998.03 255.915H1905.28L1905.88 231.11L1929.81 226.875L1931.61 133.705H1930.41L1838.26 217.8V226.875L1862.19 231.11L1861.6 255.915H1768.85L1769.44 231.11L1793.38 226.875L1796.37 79.255L1772.44 75.02L1773.03 50.215H1796.97H1841.85H1865.19V49.61Z" fill="#1F1F1F"/>
<path d="M2226.61 49.61L2226.02 74.415L2202.08 78.65L2199.09 226.27L2223.02 230.505L2222.43 255.31H2154.21L2155.41 177.87H2126.08L2104.54 222.64C2098.56 233.53 2091.98 242 2083.6 247.445C2075.22 253.495 2065.65 256.52 2054.88 256.52C2049.49 256.52 2044.7 255.915 2040.51 254.705C2036.33 253.495 2032.14 251.68 2028.55 249.865L2035.13 219.01C2036.92 219.615 2038.72 220.22 2040.51 220.22C2041.71 220.22 2043.51 220.825 2045.9 220.825C2050.09 220.825 2054.28 219.615 2057.87 217.195C2061.46 214.775 2065.65 210.54 2069.84 204.49L2087.79 170.61C2072.23 165.165 2060.86 157.905 2053.68 148.83C2045.9 139.755 2042.31 127.655 2042.91 113.74C2043.51 93.775 2050.69 78.045 2065.65 67.155C2080.61 56.265 2100.95 50.82 2126.68 50.82H2204.47H2226.61V49.61ZM2086.59 114.345C2086.59 124.63 2089.58 133.1 2095.57 139.15C2101.55 145.2 2111.12 148.225 2123.69 148.225H2156.6L2157.8 81.675H2124.89C2112.32 81.675 2103.35 84.7 2096.76 90.145C2090.18 95.59 2086.59 104.06 2086.59 114.345ZM2130.27 255.31L2130.87 230.505L2154.81 226.27L2154.21 255.31H2130.27Z" fill="#1F1F1F"/>
<path d="M298.597 297.66L278.85 261.36L322.533 237.16V41.14H40.6906V79.255H0V0H363.224V261.965L298.597 297.66Z" fill="#1F1F1F"/>
<path d="M180.116 363L0 261.965V121.605H40.6906V237.16L180.116 315.81L241.75 281.93L261.497 317.625L180.116 363Z" fill="#1F1F1F"/>
<path d="M180.116 220.22V267.41L87.9636 215.38V78.65H157.377V120.395H128.654V191.18L180.116 220.22Z" fill="#1F1F1F"/>
<path d="M275.26 145.2H234.569V119.79H198.666V78.65H275.26V145.2Z" fill="#1F1F1F"/>
</svg>
