<svg width="93" height="94" viewBox="0 0 93 94" fill="none" xmlns="http://www.w3.org/2000/svg">
<g clip-path="url(#clip0_7_340)">
<path d="M92.4068 30.9479L24.7999 59.7374C19.1929 62.1096 14.4845 63.2957 10.6746 63.2957C6.36159 63.2957 3.23464 61.7861 1.29377 58.767C0.0717381 56.8261 -0.287682 54.3641 0.215506 51.3809C0.718695 48.3977 2.04855 45.2169 4.20507 41.8383C6.00217 39.1067 8.94942 35.5125 13.0468 31.0557C11.6091 33.356 10.6028 35.7282 10.0277 38.1722C8.94942 42.7728 9.91985 46.1513 12.939 48.3079C14.3767 49.3142 16.3535 49.8174 18.8694 49.8174C20.8822 49.8174 23.1465 49.494 25.6625 48.847L92.4068 30.9479Z" fill="#ECECEC"/>
</g>
<defs>
<clipPath id="clip0_7_340">
<rect width="93" height="93" fill="white" transform="translate(0 0.621826)"/>
</clipPath>
</defs>
</svg>
